<?xml version="1.0" encoding="utf-8"?>
<!-- Generator: Adobe Illustrator 26.1.0, SVG Export Plug-In . SVG Version: 6.00 Build 0)  -->
<svg version="1.1" id="Capa_1" xmlns="http://www.w3.org/2000/svg" xmlns:xlink="http://www.w3.org/1999/xlink" x="0px" y="0px"
	 viewBox="0 0 792 612" style="enable-background:new 0 0 792 612;" xml:space="preserve">
<style type="text/css">
	.st0{fill-rule:evenodd;clip-rule:evenodd;fill:#36A9E1;}
	.st1{fill:#36A9E1;}
	.st2{fill:#FFFFFF;}
</style>
<g>
	<path class="st0" d="M352.99,430.65h-36.85H316h-60.99h-0.14h-10.11h-82.74h-0.45c-9.63-0.03-18.63-0.8-27.08-2.18
		c-34.01-5.65-56.11-21.68-69.79-41.07c-13.61-19.26-18.56-41.59-18.56-60.26c0-5.65,0.48-11.19,1.35-16.35
		c3.74-22.34,21.13-50.49,45.82-71.1c15.07-12.57,33.01-22.65,52.54-27.39c3.36-0.8,5.71-3.46,6.13-6.89
		c1.52-12.47,4.88-24.38,9.97-35.46c9.8-21.47,25.97-39.48,47.38-51.67c19.98-11.39,44.5-17.59,72.45-16.55
		c2.74,0.1,5.13-1.04,6.75-3.19c12.4-16.35,28.47-28.92,46.44-37.72c22.17-10.84,47.27-15.9,72.11-15.2
		c24.97,0.73,49.73,7.2,71.1,19.46c15.03,8.62,28.43,20.12,39.07,34.49c2.04,2.77,5.44,3.91,8.73,2.94
		c6.86-1.97,13.71-3.22,20.5-3.84c22.75-2.08,44.5,3.19,63,13.89c18.42,10.63,33.63,26.63,43.36,46.1
		c6.06,12.12,10.01,25.56,11.33,39.86c0.21,2.46,0.38,4.88,0.45,7.24c0.14,3.74,2.7,6.82,6.37,7.62
		c11.53,2.53,21.82,6.96,30.93,12.88c18.11,11.78,31.03,29.23,39.38,49.42c7.97,19.29,11.71,41.04,11.71,62.37
		c0,27.95-6.41,55.83-18.11,77.34c-0.35,0.66-0.73,1.18-1.25,1.7c-2.91,3.05-13.78,12.85-34.49,13.58c-0.1,0-0.17,0-0.28,0h-60.02
		h-61.02c-7.72,0-14.03,6.3-14.03,14.03V549c0,9.39-7.62,17-17,17c-4.29,0-8.21-1.59-11.22-4.23c-0.28-0.24-0.48-0.42-0.76-0.62
		L366.7,433.53c-2.53-1.94-5.3-2.84-8.49-2.84h-5.23V430.65z M550.67,395.71h39.59c3.36,0,6.23-1.94,7.52-5.06
		c6.41-15.76,19.33-37.96,44.92-56.31c7.83-5.58,18.7-3.74,24.28,4.09c5.58,7.83,3.74,18.74-4.09,24.31
		c-8.97,6.41-15.76,13.3-20.92,19.88c-1.94,2.49-2.29,5.68-0.9,8.55c1.39,2.84,4.12,4.54,7.27,4.54h52.33
		c3.32,0,6.16-1.87,7.45-4.92c6.44-15.1,9.94-33.73,9.94-52.78c0-17.21-2.84-34.36-8.97-49.14c-5.75-13.92-14.37-25.8-26.11-33.46
		c-4.99-3.22-10.6-5.75-16.97-7.41c-3.95-1.04-7.97,0.97-9.52,4.74c-14.65,35.22-43.78,50.67-43.88,50.74
		c-8.45,4.64-19.05,1.56-23.69-6.89s-1.56-19.05,6.89-23.69c0.1-0.07,38.37-20.29,33.73-71.31c-0.9-9.87-3.6-19.12-7.76-27.43
		c-6.65-13.33-17.04-24.28-29.58-31.52c-12.5-7.24-27.19-10.77-42.53-9.39c-8,0.73-16.24,2.81-24.49,6.41
		c-0.55,0.24-1,0.52-1.52,0.87c-0.8,0.59-1.66,1.11-2.6,1.56c-0.87,0.42-1.73,0.76-2.6,1.04c-0.55,0.17-1.04,0.35-1.56,0.66
		c-52.43,28.81-69.4,89.35-69.44,89.53c-2.67,9.25-12.33,14.55-21.58,11.88c-9.25-2.67-14.55-12.33-11.88-21.58
		c0.07-0.21,16.94-60.47,68.09-98.67c1.9-1.42,3.01-3.39,3.22-5.75c0.21-2.39-0.52-4.5-2.15-6.27c-6.51-7-14.06-12.85-22.34-17.59
		c-16.42-9.42-35.46-14.41-54.72-14.96c-19.39-0.55-38.82,3.32-55.83,11.67c-16.45,8.03-30.62,20.36-40.14,36.88
		c-3.81,6.61-11.29,9.84-18.39,8.49c-0.21-0.03-0.35-0.07-0.55-0.07c-25.77-3.01-47.69,1.49-64.73,11.19
		c-14.86,8.49-26.11,20.99-32.9,35.85c-6.86,15-9.28,32.59-6.44,51.01c0,0.1,0.03,0.17,0.03,0.28c0.03,0.35,0.07,0.66,0.1,1
		c0.03,0.21,0.03,0.42,0.07,0.62c4.09,23.76,16.97,48.76,40.21,71.66c6.86,6.75,6.96,17.77,0.21,24.62
		c-6.75,6.86-17.77,6.96-24.62,0.21c-25.25-24.83-40.66-52.23-47.62-79.24c-0.59-2.32-2.01-4.09-4.12-5.16
		c-2.11-1.11-4.36-1.25-6.61-0.38c-10.49,3.98-20.36,10.15-29.13,17.46c-18.49,15.45-31.31,35.22-33.8,50.11
		c-0.52,3.05-0.8,6.61-0.8,10.6c0,12.64,3.22,27.6,12.12,40.21c8.8,12.47,23.55,22.82,47,26.74c6.44,1.07,13.68,1.66,21.82,1.66
		h82.7c18.84,0,41.49-6.23,58.15-21.68c12.71-11.81,22.06-29.3,23.69-53.96c1.52-23.62-8.17-42.15-19.95-55.72
		c-0.24-0.28-0.45-0.48-0.73-0.73c-0.87-0.76-1.63-1.63-2.32-2.53c-0.21-0.28-0.42-0.52-0.66-0.76
		c-15.48-16.04-32.8-23.97-32.9-24.04c-8.73-4.02-12.57-14.37-8.52-23.13c4.02-8.73,14.41-12.57,23.13-8.55
		c0.07,0.03,8.52,3.91,19.78,11.78c1.94,1.35,4.12,1.8,6.44,1.25c2.32-0.52,4.09-1.87,5.26-3.91c12.85-22.79,33.94-53.2,63.34-72.94
		c8-5.37,18.81-3.22,24.17,4.78c5.33,8,3.22,18.81-4.78,24.14c-29.82,20.05-49.66,54.44-58.91,73.46c-1.35,2.74-1.07,5.82,0.69,8.28
		c8.38,11.67,15.38,25.59,18.77,41.8c0.59,2.81,2.42,4.95,5.13,5.96c29.65,10.94,106.91,26.46,159.35-80.49
		c4.23-8.62,14.65-12.19,23.27-8c8.62,4.23,12.19,14.65,7.97,23.27c-15.03,30.65-31.9,53.09-49.42,69.37
		c-2.25,2.08-3.12,4.99-2.36,7.93c3.22,12.64,10.22,29.65,24.83,31.97c9.49,1.52,15.97,10.42,14.48,19.95
		c-1.49,9.49-10.42,15.97-19.91,14.48c-25.63-4.09-39.83-23.93-47.59-42.53c-0.87-2.08-2.36-3.57-4.47-4.4
		c-2.11-0.83-4.19-0.8-6.27,0.1c-36.3,15.9-71.55,12.36-95.97,5.99c-2.22-0.59-4.33-0.28-6.27,0.94c-1.94,1.21-3.19,2.94-3.67,5.16
		c-3.46,15.65-9.52,28.92-17.32,40.04c-1.8,2.53-1.97,5.65-0.55,8.38c1.42,2.77,4.09,4.36,7.2,4.36h15.58c0.55,0,1.04-0.03,1.63-0.1
		c4.19-0.48,8.55,0.59,12.16,3.32l130.12,98.77c4.36,3.29,9.84,3.81,14.72,1.39c4.88-2.42,7.79-7.1,7.79-12.57V412.3
		C529.79,401.74,537.37,395.71,550.67,395.71L550.67,395.71z"/>
	<g>
		<circle class="st1" cx="388.73" cy="151.51" r="30.55"/>
		<circle class="st2" cx="388.73" cy="151.51" r="14.96"/>
	</g>
	<g>
		<circle class="st1" cx="213.59" cy="318.44" r="30.55"/>
		<circle class="st2" cx="213.59" cy="318.44" r="14.96"/>
	</g>
	<g>
		<circle class="st1" cx="653.33" cy="343.45" r="30.55"/>
		<circle class="st2" cx="653.33" cy="343.45" r="14.96"/>
	</g>
	<g>
		<circle class="st1" cx="539.04" cy="222.51" r="30.55"/>
		<circle class="st2" cx="539.04" cy="222.51" r="14.96"/>
	</g>
	<g>
		<circle class="st1" cx="546.86" cy="359" r="30.55"/>
		<circle class="st2" cx="546.86" cy="359" r="14.96"/>
	</g>
</g>
</svg>
