<?xml version="1.0" encoding="utf-8"?>
<!-- Generator: Adobe Illustrator 26.1.0, SVG Export Plug-In . SVG Version: 6.00 Build 0)  -->
<svg version="1.1" id="Capa_1" xmlns="http://www.w3.org/2000/svg" xmlns:xlink="http://www.w3.org/1999/xlink" x="0px" y="0px"
	 viewBox="0 0 792 612" style="enable-background:new 0 0 792 612;" xml:space="preserve">
<style type="text/css">
	.st0{fill:#FFFFFF;}
	.st1{fill-rule:evenodd;clip-rule:evenodd;fill:#FFFFFF;}
</style>
<g>
	<path class="st0" d="M276.82,299.13h26.84c0.37,0,0.74-0.12,1.11-0.37c0.31-0.19,0.46-0.49,0.46-0.93c0-0.31-0.09-0.54-0.28-0.7
		c-0.19-0.15-0.37-0.29-0.56-0.42c-0.31-0.19-0.84-0.39-1.58-0.6c-0.74-0.22-2.08-0.66-3.99-1.35l-10.59-3.44
		c-2.23-0.74-4.24-1.62-6.04-2.65c-1.8-1.02-3.16-2.31-4.09-3.85c-0.68-1.18-1.16-2.54-1.44-4.09c-0.28-1.55-0.42-2.94-0.42-4.18
		c0-1.55,0.17-3.08,0.51-4.6c0.34-1.52,0.94-2.93,1.81-4.23c1.3-1.98,2.88-3.25,4.74-3.81c1.86-0.56,4.09-0.84,6.69-0.84h50.91
		l-2.16,12.63h-42.62c-0.31,0-0.65-0.01-1.02-0.05c-0.37-0.03-0.74,0.02-1.11,0.14c-0.25,0.06-0.45,0.14-0.6,0.23
		c-0.16,0.09-0.23,0.29-0.23,0.6c0,0.37,0.09,0.62,0.28,0.74c0.19,0.12,0.43,0.25,0.74,0.37c0.56,0.19,0.96,0.33,1.21,0.42
		c0.25,0.09,0.46,0.19,0.65,0.28c0.19,0.09,0.4,0.19,0.65,0.28c0.25,0.09,0.65,0.23,1.21,0.42l12.45,4.18
		c2.6,0.87,4.84,1.76,6.73,2.69c1.89,0.93,3.42,2.26,4.6,3.99c1.18,1.67,1.89,3.41,2.14,5.2c0.25,1.8,0.37,3.22,0.37,4.27
		c0,1.8-0.26,3.65-0.79,5.57c-0.53,1.92-1.63,3.56-3.3,4.92c-1.3,1.05-2.66,1.7-4.09,1.95c-1.43,0.25-2.76,0.37-3.99,0.37h-35.2
		V299.13z"/>
	<path class="st0" d="M328.64,271.92c0-0.74,0.11-1.61,0.33-2.6c0.22-0.99,0.7-1.95,1.44-2.88c1.24-1.61,2.68-2.57,4.32-2.88
		c1.64-0.31,3.45-0.46,5.43-0.46h42.26c2.79,0,5.57,0.39,8.36,1.16c2.79,0.77,5.11,2.03,6.97,3.76c1.73,1.61,3.03,3.65,3.9,6.13
		c0.87,2.48,1.3,4.86,1.3,7.15v31.02h-18.2v-27.31c0-1.05-0.11-2.24-0.32-3.58c-0.22-1.33-0.76-2.46-1.63-3.39
		c-0.5-0.56-1.24-1.05-2.23-1.49c-0.99-0.43-2.2-0.65-3.62-0.65h-2.04v36.41h-18.2v-36.41h-6.97c-0.81,0-1.38,0.09-1.72,0.28
		c-0.34,0.19-0.57,0.34-0.7,0.46c-0.19,0.25-0.31,0.6-0.37,1.07c-0.06,0.46-0.09,0.94-0.09,1.44v33.16h-18.2V271.92z"/>
	<path class="st0" d="M443.34,263.1c3.03,0,5.56,0.45,7.57,1.35c2.01,0.9,3.54,1.87,4.6,2.93c0.99,0.99,1.8,2.09,2.41,3.3
		c0.62,1.21,1.1,2.41,1.44,3.62c0.34,1.21,0.56,2.41,0.65,3.62c0.09,1.21,0.14,2.31,0.14,3.3v20.62c0,1.3-0.12,2.65-0.37,4.04
		c-0.25,1.39-0.93,2.68-2.04,3.85c-1.18,1.24-2.51,1.98-3.99,2.23c-1.49,0.25-2.94,0.37-4.36,0.37H420.4
		c-1.55,0-3.11-0.12-4.69-0.37c-1.58-0.25-3.02-0.99-4.32-2.23c-0.93-0.87-1.67-1.89-2.23-3.06c-0.56-1.18-0.96-2.4-1.21-3.67
		c-0.25-1.27-0.4-2.52-0.46-3.76c-0.06-1.24-0.09-2.35-0.09-3.34c0-1.05,0.05-2.15,0.14-3.3c0.09-1.15,0.28-2.28,0.56-3.39
		c0.28-1.11,0.7-2.17,1.25-3.16c0.56-0.99,1.33-1.86,2.32-2.6c1.36-1.05,2.8-1.67,4.32-1.86c1.52-0.19,2.99-0.28,4.41-0.28h21.55
		v-0.74c0-0.43-0.05-0.94-0.14-1.53c-0.09-0.59-0.36-1.16-0.79-1.72c-0.68-0.93-1.55-1.49-2.6-1.67c-1.05-0.19-2.04-0.28-2.97-0.28
		h-24.71V263.1H443.34z M429.04,293c-0.31,0-0.73,0.05-1.25,0.14c-0.53,0.09-1.01,0.32-1.44,0.7c-0.31,0.31-0.51,0.67-0.6,1.07
		c-0.09,0.4-0.14,0.82-0.14,1.25c0,0.37,0.05,0.74,0.14,1.11c0.09,0.37,0.29,0.71,0.6,1.02c0.31,0.31,0.7,0.53,1.16,0.65
		c0.46,0.12,0.91,0.19,1.35,0.19h9.47c0.49,0,0.99-0.05,1.49-0.14c0.49-0.09,0.9-0.26,1.21-0.51c0.43-0.31,0.7-0.68,0.79-1.11
		c0.09-0.43,0.14-0.87,0.14-1.3V293H429.04z"/>
	<path class="st0" d="M465.73,283.81c0-1.18,0.05-2.46,0.14-3.85c0.09-1.39,0.34-2.82,0.74-4.27c0.4-1.45,0.99-2.86,1.76-4.23
		c0.77-1.36,1.84-2.6,3.2-3.72c1.36-1.11,2.85-1.98,4.46-2.6c1.61-0.62,3.24-1.08,4.88-1.39c1.64-0.31,3.22-0.49,4.74-0.56
		c1.52-0.06,2.89-0.09,4.13-0.09h22.17v12.82h-16.42c-1.8,0-3.48,0.2-5.06,0.6c-1.58,0.4-2.96,1.38-4.13,2.93
		c-1.05,1.42-1.72,2.99-2,4.69c-0.28,1.7-0.42,3.27-0.42,4.69v23.5h-18.2V283.81z"/>
	<path class="st0" d="M531.95,312.32c-0.93,0-2-0.01-3.2-0.05c-1.21-0.03-2.49-0.15-3.85-0.37c-1.36-0.22-2.76-0.54-4.18-0.97
		c-1.42-0.43-2.76-1.08-3.99-1.95c-2.04-1.42-3.59-3.23-4.64-5.43c-1.05-2.2-1.58-4.41-1.58-6.64v-21.18h-6.97V263.1h6.97v-15.79
		h18.2v15.79h14.03v12.63H528.7v11.24c0,1.8,0.19,3.58,0.56,5.34c0.37,1.76,1.24,3.27,2.6,4.5c1.24,1.11,2.59,1.78,4.04,2
		c1.45,0.22,2.77,0.32,3.95,0.32h2.69v13.19H531.95z"/>
</g>
<g>
	<path class="st0" d="M612.6,301.54c0,0.55-0.09,1.47-0.28,2.76c-0.18,1.29-0.74,2.58-1.66,3.87c-0.92,1.29-2.32,2.43-4.19,3.41
		c-1.87,0.98-4.5,1.47-7.87,1.47c-1.23,0-2.46-0.06-3.68-0.18c-1.23-0.12-2.44-0.4-3.64-0.83c-1.2-0.43-2.36-1.07-3.5-1.93
		c-1.14-0.86-2.2-1.99-3.18-3.41l-23.3-32.88c-0.25-0.31-0.52-0.65-0.83-1.01c-0.31-0.37-0.61-0.55-0.92-0.55
		c-0.12,0-0.37,0.08-0.74,0.23c-0.37,0.15-0.55,0.69-0.55,1.61v38.22h-16.02v-53.78c0-2.09,0.4-3.85,1.2-5.3
		c0.8-1.44,1.87-2.63,3.22-3.55c1.35-0.92,2.9-1.58,4.65-1.98c1.75-0.4,3.55-0.6,5.39-0.6c0.86,0,1.87,0.05,3.04,0.14
		c1.17,0.09,2.36,0.34,3.59,0.74c1.23,0.4,2.46,1,3.68,1.8c1.23,0.8,2.33,1.9,3.32,3.32l23.48,33.15c0.25,0.31,0.51,0.65,0.78,1.01
		c0.28,0.37,0.6,0.55,0.97,0.55c0.49,0,0.78-0.2,0.88-0.6c0.09-0.4,0.14-0.72,0.14-0.97v-38.4h16.02V301.54z"/>
	<path class="st0" d="M632.58,312.32c-1.35,0-2.69-0.11-4.01-0.32c-1.32-0.21-2.59-0.84-3.82-1.89c-1.47-1.23-2.33-2.5-2.58-3.82
		c-0.25-1.32-0.37-2.75-0.37-4.28V257.8c0-1.23,0.15-2.49,0.46-3.78c0.31-1.29,1.07-2.49,2.3-3.59c1.23-1.1,2.55-1.81,3.96-2.12
		c1.41-0.31,2.7-0.46,3.87-0.46h46.32v15.66h-31.86c-0.61,0-1.21,0.08-1.8,0.23c-0.58,0.15-1.06,0.38-1.43,0.69
		c-0.49,0.43-0.78,0.95-0.87,1.57s-0.14,1.14-0.14,1.56v4.88h35.18v14h-35.18v7c0,0.68,0.09,1.2,0.28,1.57
		c0.18,0.37,0.4,0.64,0.64,0.83c0.49,0.49,1.1,0.75,1.84,0.78c0.74,0.03,1.44,0.05,2.12,0.05H679v15.66H632.58z"/>
	<path class="st0" d="M700.1,312.32v-48.44h-23.02v-16.02h66.86v16.02h-23.02v48.44H700.1z"/>
</g>
<g>
	<path class="st1" d="M134.74,319.35h-10.64h-0.04h-17.61h-0.04h-2.92H79.6h-0.13c-2.78-0.01-5.38-0.23-7.82-0.63
		c-9.82-1.63-16.2-6.26-20.15-11.86c-3.93-5.56-5.36-12.01-5.36-17.4c0-1.63,0.14-3.23,0.39-4.72c1.08-6.45,6.1-14.58,13.23-20.53
		c4.35-3.63,9.53-6.54,15.17-7.91c0.97-0.23,1.65-1,1.77-1.99c0.44-3.6,1.41-7.04,2.88-10.24c2.83-6.2,7.5-11.4,13.68-14.92
		c5.77-3.29,12.85-5.08,20.92-4.78c0.79,0.03,1.48-0.3,1.95-0.92c3.58-4.72,8.22-8.35,13.41-10.89c6.4-3.13,13.65-4.59,20.82-4.39
		c7.21,0.21,14.36,2.08,20.53,5.62c4.34,2.49,8.21,5.81,11.28,9.96c0.59,0.8,1.57,1.13,2.52,0.85c1.98-0.57,3.96-0.93,5.92-1.11
		c6.57-0.6,12.85,0.92,18.19,4.01c5.32,3.07,9.71,7.69,12.52,13.31c1.75,3.5,2.89,7.38,3.27,11.51c0.06,0.71,0.11,1.41,0.13,2.09
		c0.04,1.08,0.78,1.97,1.84,2.2c3.33,0.73,6.3,2.01,8.93,3.72c5.23,3.4,8.96,8.44,11.37,14.27c2.3,5.57,3.38,11.85,3.38,18.01
		c0,8.07-1.85,16.12-5.23,22.33c-0.1,0.19-0.21,0.34-0.36,0.49c-0.84,0.88-3.98,3.71-9.96,3.92c-0.03,0-0.05,0-0.08,0h-17.33h-17.62
		c-2.23,0-4.05,1.82-4.05,4.05v30.12c0,2.71-2.2,4.91-4.91,4.91c-1.24,0-2.37-0.46-3.24-1.22c-0.08-0.07-0.14-0.12-0.22-0.18
		l-48.54-36.85c-0.73-0.56-1.53-0.82-2.45-0.82H134.74L134.74,319.35z M191.82,309.26h11.43c0.97,0,1.8-0.56,2.17-1.46
		c1.85-4.55,5.58-10.96,12.97-16.26c2.26-1.61,5.4-1.08,7.01,1.18c1.61,2.26,1.08,5.41-1.18,7.02c-2.59,1.85-4.55,3.84-6.04,5.74
		c-0.56,0.72-0.66,1.64-0.26,2.47c0.4,0.82,1.19,1.31,2.1,1.31h15.11c0.96,0,1.78-0.54,2.15-1.42c1.86-4.36,2.87-9.74,2.87-15.24
		c0-4.97-0.82-9.92-2.59-14.19c-1.66-4.02-4.15-7.45-7.54-9.66c-1.44-0.93-3.06-1.66-4.9-2.14c-1.14-0.3-2.3,0.28-2.75,1.37
		c-4.23,10.17-12.64,14.63-12.67,14.65c-2.44,1.34-5.5,0.45-6.84-1.99c-1.34-2.44-0.45-5.5,1.99-6.84
		c0.03-0.02,11.08-5.86,9.74-20.59c-0.26-2.85-1.04-5.52-2.24-7.92c-1.92-3.85-4.92-7.01-8.54-9.1c-3.61-2.09-7.85-3.11-12.28-2.71
		c-2.31,0.21-4.69,0.81-7.07,1.85c-0.16,0.07-0.29,0.15-0.44,0.25c-0.23,0.17-0.48,0.32-0.75,0.45c-0.25,0.12-0.5,0.22-0.75,0.3
		c-0.16,0.05-0.3,0.1-0.45,0.19c-15.14,8.32-20.04,25.8-20.05,25.85c-0.77,2.67-3.56,4.2-6.23,3.43c-2.67-0.77-4.2-3.56-3.43-6.23
		c0.02-0.06,4.89-17.46,19.66-28.49c0.55-0.41,0.87-0.98,0.93-1.66c0.06-0.69-0.15-1.3-0.62-1.81c-1.88-2.02-4.06-3.71-6.45-5.08
		c-4.74-2.72-10.24-4.16-15.8-4.32c-5.6-0.16-11.21,0.96-16.12,3.37c-4.75,2.32-8.84,5.88-11.59,10.65
		c-1.1,1.91-3.26,2.84-5.31,2.45c-0.06-0.01-0.1-0.02-0.16-0.02c-7.44-0.87-13.77,0.43-18.69,3.23c-4.29,2.45-7.54,6.06-9.5,10.35
		c-1.98,4.33-2.68,9.41-1.86,14.73c0,0.03,0.01,0.05,0.01,0.08c0.01,0.1,0.02,0.19,0.03,0.29c0.01,0.06,0.01,0.12,0.02,0.18
		c1.18,6.86,4.9,14.08,11.61,20.69c1.98,1.95,2.01,5.13,0.06,7.11c-1.95,1.98-5.13,2.01-7.11,0.06
		c-7.29-7.17-11.74-15.08-13.75-22.88c-0.17-0.67-0.58-1.18-1.19-1.49c-0.61-0.32-1.26-0.36-1.91-0.11
		c-3.03,1.15-5.88,2.93-8.41,5.04c-5.34,4.46-9.04,10.17-9.76,14.47c-0.15,0.88-0.23,1.91-0.23,3.06c0,3.65,0.93,7.97,3.5,11.61
		c2.54,3.6,6.8,6.59,13.57,7.72c1.86,0.31,3.95,0.48,6.3,0.48h23.88c5.44,0,11.98-1.8,16.79-6.26c3.67-3.41,6.37-8.46,6.84-15.58
		c0.44-6.82-2.36-12.17-5.76-16.09c-0.07-0.08-0.13-0.14-0.21-0.21c-0.25-0.22-0.47-0.47-0.67-0.73c-0.06-0.08-0.12-0.15-0.19-0.22
		c-4.47-4.63-9.47-6.92-9.5-6.94c-2.52-1.16-3.63-4.15-2.46-6.68c1.16-2.52,4.16-3.63,6.68-2.47c0.02,0.01,2.46,1.13,5.71,3.4
		c0.56,0.39,1.19,0.52,1.86,0.36c0.67-0.15,1.18-0.54,1.52-1.13c3.71-6.58,9.8-15.36,18.29-21.06c2.31-1.55,5.43-0.93,6.98,1.38
		c1.54,2.31,0.93,5.43-1.38,6.97c-8.61,5.79-14.34,15.72-17.01,21.21c-0.39,0.79-0.31,1.68,0.2,2.39c2.42,3.37,4.44,7.39,5.42,12.07
		c0.17,0.81,0.7,1.43,1.48,1.72c8.56,3.16,30.87,7.64,46.01-23.24c1.22-2.49,4.23-3.52,6.72-2.31c2.49,1.22,3.52,4.23,2.3,6.72
		c-4.34,8.85-9.21,15.33-14.27,20.03c-0.65,0.6-0.9,1.44-0.68,2.29c0.93,3.65,2.95,8.56,7.17,9.23c2.74,0.44,4.61,3.01,4.18,5.76
		c-0.43,2.74-3.01,4.61-5.75,4.18c-7.4-1.18-11.5-6.91-13.74-12.28c-0.25-0.6-0.68-1.03-1.29-1.27c-0.61-0.24-1.21-0.23-1.81,0.03
		c-10.48,4.59-20.66,3.57-27.71,1.73c-0.64-0.17-1.25-0.08-1.81,0.27c-0.56,0.35-0.92,0.85-1.06,1.49c-1,4.52-2.75,8.35-5,11.56
		c-0.52,0.73-0.57,1.63-0.16,2.42c0.41,0.8,1.18,1.26,2.08,1.26h4.5c0.16,0,0.3-0.01,0.47-0.03c1.21-0.14,2.47,0.17,3.51,0.96
		l37.57,28.52c1.26,0.95,2.84,1.1,4.25,0.4c1.41-0.7,2.25-2.05,2.25-3.63v-21.45C185.79,311,187.98,309.26,191.82,309.26
		L191.82,309.26z"/>
	<g>
		<circle class="st0" cx="145.06" cy="238.75" r="8.82"/>
		<circle class="st0" cx="145.06" cy="238.75" r="4.32"/>
	</g>
	<g>
		<circle class="st0" cx="94.49" cy="286.95" r="8.82"/>
		<circle class="st0" cx="94.49" cy="286.95" r="4.32"/>
	</g>
	<g>
		<circle class="st0" cx="221.46" cy="294.17" r="8.82"/>
		<circle class="st0" cx="221.46" cy="294.17" r="4.32"/>
	</g>
	<g>
		<circle class="st0" cx="188.46" cy="259.25" r="8.82"/>
		<circle class="st0" cx="188.46" cy="259.25" r="4.32"/>
	</g>
	<g>
		<circle class="st0" cx="190.72" cy="298.66" r="8.82"/>
		<circle class="st0" cx="190.72" cy="298.66" r="4.32"/>
	</g>
</g>
</svg>
