<?xml version="1.0" encoding="utf-8"?>
<!-- Generator: Adobe Illustrator 24.0.2, SVG Export Plug-In . SVG Version: 6.00 Build 0)  -->
<svg version="1.1" id="Capa_1" xmlns="http://www.w3.org/2000/svg" xmlns:xlink="http://www.w3.org/1999/xlink" x="0px" y="0px"
	 viewBox="0 0 467.7 65.9" style="enable-background:new 0 0 467.7 65.9;" xml:space="preserve">
<style type="text/css">
	.st0{fill:#112C43;}
	.st1{fill:#36A9E1;}
</style>
<g>
	<path class="st0" d="M0.6,52h26.8c0.4,0,0.7-0.1,1.1-0.4c0.3-0.2,0.5-0.5,0.5-0.9c0-0.3-0.1-0.5-0.3-0.7c-0.2-0.1-0.4-0.3-0.6-0.4
		c-0.3-0.2-0.8-0.4-1.6-0.6c-0.7-0.2-2.1-0.7-4-1.4L12,44.2c-2.2-0.7-4.2-1.6-6-2.6c-1.8-1-3.2-2.3-4.1-3.9
		c-0.7-1.2-1.2-2.5-1.4-4.1S0,30.7,0,29.4c0-1.5,0.2-3.1,0.5-4.6c0.3-1.5,0.9-2.9,1.8-4.2c1.3-2,2.9-3.3,4.7-3.8s4.1-0.8,6.7-0.8
		h50.9l-2.2,12.6H19.9c-0.3,0-0.6,0-1,0c-0.4,0-0.7,0-1.1,0.1c-0.3,0.1-0.4,0.1-0.6,0.2c-0.2,0.1-0.2,0.3-0.2,0.6
		c0,0.4,0.1,0.6,0.3,0.7s0.4,0.3,0.7,0.4c0.6,0.2,1,0.3,1.2,0.4c0.3,0.1,0.5,0.2,0.6,0.3c0.2,0.1,0.4,0.2,0.6,0.3s0.6,0.2,1.2,0.4
		l12.4,4.2c2.6,0.9,4.8,1.8,6.7,2.7s3.4,2.3,4.6,4c1.2,1.7,1.9,3.4,2.1,5.2c0.3,1.8,0.4,3.2,0.4,4.3c0,1.8-0.3,3.6-0.8,5.6
		s-1.6,3.6-3.3,4.9c-1.3,1-2.7,1.7-4.1,2s-2.8,0.4-4,0.4H0.6L0.6,52L0.6,52z"/>
	<path class="st0" d="M52.4,24.8c0-0.7,0.1-1.6,0.3-2.6c0.2-1,0.7-2,1.4-2.9c1.2-1.6,2.7-2.6,4.3-2.9c1.6-0.3,3.4-0.5,5.4-0.5h42.3
		c2.8,0,5.6,0.4,8.4,1.2c2.8,0.8,5.1,2,7,3.8c1.7,1.6,3,3.6,3.9,6.1s1.3,4.9,1.3,7.1v31h-18.2V37.9c0-1-0.1-2.2-0.3-3.6
		c-0.2-1.3-0.8-2.5-1.6-3.4c-0.5-0.6-1.2-1-2.2-1.5c-1-0.4-2.2-0.6-3.6-0.6h-2v36.4H80.4V28.8h-7c-0.8,0-1.4,0.1-1.7,0.3
		s-0.6,0.3-0.7,0.5c-0.2,0.3-0.3,0.6-0.4,1.1c-0.1,0.5-0.1,0.9-0.1,1.4v33.2H52.4L52.4,24.8L52.4,24.8z"/>
	<path class="st0" d="M167.1,16c3,0,5.6,0.5,7.6,1.4s3.5,1.9,4.6,2.9c1,1,1.8,2.1,2.4,3.3c0.6,1.2,1.1,2.4,1.4,3.6s0.6,2.4,0.6,3.6
		s0.1,2.3,0.1,3.3v20.6c0,1.3-0.1,2.6-0.4,4s-0.9,2.7-2,3.9c-1.2,1.2-2.5,2-4,2.2c-1.5,0.3-2.9,0.4-4.4,0.4h-29
		c-1.5,0-3.1-0.1-4.7-0.4c-1.6-0.3-3-1-4.3-2.2c-0.9-0.9-1.7-1.9-2.2-3.1c-0.6-1.2-1-2.4-1.2-3.7c-0.3-1.3-0.4-2.5-0.5-3.8
		c-0.1-1.2-0.1-2.4-0.1-3.3c0-1,0-2.1,0.1-3.3c0.1-1.1,0.3-2.3,0.6-3.4c0.3-1.1,0.7-2.2,1.3-3.2c0.6-1,1.3-1.9,2.3-2.6
		c1.4-1,2.8-1.7,4.3-1.9c1.5-0.2,3-0.3,4.4-0.3h21.5v-0.7c0-0.4,0-0.9-0.1-1.5c-0.1-0.6-0.4-1.2-0.8-1.7c-0.7-0.9-1.5-1.5-2.6-1.7
		c-1-0.2-2-0.3-3-0.3h-24.7V16L167.1,16L167.1,16z M152.8,45.9c-0.3,0-0.7,0-1.3,0.1c-0.5,0.1-1,0.3-1.4,0.7
		c-0.3,0.3-0.5,0.7-0.6,1.1s-0.1,0.8-0.1,1.3c0,0.4,0,0.7,0.1,1.1c0.1,0.4,0.3,0.7,0.6,1s0.7,0.5,1.2,0.6s0.9,0.2,1.4,0.2h9.5
		c0.5,0,1,0,1.5-0.1c0.5-0.1,0.9-0.3,1.2-0.5c0.4-0.3,0.7-0.7,0.8-1.1s0.1-0.9,0.1-1.3v-3.1L152.8,45.9L152.8,45.9z"/>
	<path class="st0" d="M189.5,36.7c0-1.2,0-2.5,0.1-3.9c0.1-1.4,0.3-2.8,0.7-4.3c0.4-1.5,1-2.9,1.8-4.2c0.8-1.4,1.8-2.6,3.2-3.7
		c1.4-1.1,2.9-2,4.5-2.6s3.2-1.1,4.9-1.4c1.6-0.3,3.2-0.5,4.7-0.6c1.5-0.1,2.9-0.1,4.1-0.1h22.2v12.8h-16.4c-1.8,0-3.5,0.2-5.1,0.6
		s-3,1.4-4.1,2.9c-1,1.4-1.7,3-2,4.7s-0.4,3.3-0.4,4.7v23.5h-18.2L189.5,36.7L189.5,36.7z"/>
	<path class="st0" d="M255.7,65.2c-0.9,0-2,0-3.2,0c-1.2,0-2.5-0.1-3.9-0.4c-1.4-0.2-2.8-0.5-4.2-1c-1.4-0.4-2.8-1.1-4-2
		c-2-1.4-3.6-3.2-4.6-5.4c-1-2.2-1.6-4.4-1.6-6.6V28.6h-7V16h7V0.2h18.2V16h14v12.6h-14v11.2c0,1.8,0.2,3.6,0.6,5.3s1.2,3.3,2.6,4.5
		c1.2,1.1,2.6,1.8,4,2s2.8,0.3,4,0.3h2.7v13.2L255.7,65.2L255.7,65.2z"/>
</g>
<g>
	<path class="st1" d="M336.4,54.4c0,0.5-0.1,1.5-0.3,2.8c-0.2,1.3-0.7,2.6-1.7,3.9c-0.9,1.3-2.3,2.4-4.2,3.4s-4.5,1.5-7.9,1.5
		c-1.2,0-2.5-0.1-3.7-0.2c-1.2-0.1-2.4-0.4-3.6-0.8s-2.4-1.1-3.5-1.9s-2.2-2-3.2-3.4l-23.3-32.9c-0.3-0.3-0.5-0.6-0.8-1
		c-0.3-0.4-0.6-0.5-0.9-0.5c-0.1,0-0.4,0.1-0.7,0.2c-0.4,0.1-0.5,0.7-0.5,1.6v38.2h-16V11.4c0-2.1,0.4-3.9,1.2-5.3
		c0.8-1.4,1.9-2.6,3.2-3.5c1.3-0.9,2.9-1.6,4.6-2c1.8-0.4,3.5-0.6,5.4-0.6c0.9,0,1.9,0,3,0.1c1.2,0.1,2.4,0.3,3.6,0.7
		c1.2,0.4,2.5,1,3.7,1.8c1.2,0.8,2.3,1.9,3.3,3.3l23.5,33.1c0.3,0.3,0.5,0.6,0.8,1c0.3,0.4,0.6,0.5,1,0.5c0.5,0,0.8-0.2,0.9-0.6
		c0.1-0.4,0.1-0.7,0.1-1V0.7h16L336.4,54.4L336.4,54.4z"/>
	<path class="st1" d="M356.3,65.2c-1.3,0-2.7-0.1-4-0.3c-1.3-0.2-2.6-0.8-3.8-1.9c-1.5-1.2-2.3-2.5-2.6-3.8s-0.4-2.8-0.4-4.3V10.7
		c0-1.2,0.2-2.5,0.5-3.8s1.1-2.5,2.3-3.6s2.5-1.8,4-2.1c1.4-0.3,2.7-0.5,3.9-0.5h46.3v15.7h-31.9c-0.6,0-1.2,0.1-1.8,0.2
		c-0.6,0.1-1.1,0.4-1.4,0.7c-0.5,0.4-0.8,1-0.9,1.6s-0.1,1.1-0.1,1.6v4.9h35.2v14h-35.2v7c0,0.7,0.1,1.2,0.3,1.6
		c0.2,0.4,0.4,0.6,0.6,0.8c0.5,0.5,1.1,0.8,1.8,0.8c0.7,0,1.4,0,2.1,0h31.5v15.7L356.3,65.2L356.3,65.2z"/>
	<path class="st1" d="M423.9,65.2V16.8h-23v-16h66.9v16h-23v48.4H423.9z"/>
</g>
</svg>
