<?xml version="1.0" encoding="utf-8"?>
<!-- Generator: Adobe Illustrator 26.1.0, SVG Export Plug-In . SVG Version: 6.00 Build 0)  -->
<svg version="1.1" id="Capa_1" xmlns="http://www.w3.org/2000/svg" xmlns:xlink="http://www.w3.org/1999/xlink" x="0px" y="0px"
	 viewBox="0 0 283.46 283.46" style="enable-background:new 0 0 283.46 283.46;" xml:space="preserve">
<style type="text/css">
	.st0{opacity:0.5;fill-rule:evenodd;clip-rule:evenodd;fill:#5E76B8;}
	.st1{fill-rule:evenodd;clip-rule:evenodd;fill:#DDE2F4;}
	.st2{fill-rule:evenodd;clip-rule:evenodd;fill:url(#SVGID_1_);}
	.st3{opacity:0.7;fill-rule:evenodd;clip-rule:evenodd;fill:#3FBEE1;}
	.st4{fill-rule:evenodd;clip-rule:evenodd;fill:#3FBEE1;}
	.st5{fill-rule:evenodd;clip-rule:evenodd;fill:url(#SVGID_00000049189769245500471450000015145864836098609072_);}
	.st6{fill-rule:evenodd;clip-rule:evenodd;fill:#6757A1;}
	.st7{opacity:0.5;fill-rule:evenodd;clip-rule:evenodd;fill:url(#SVGID_00000099643367608974495450000002064397549149411489_);}
	.st8{fill-rule:evenodd;clip-rule:evenodd;fill:url(#SVGID_00000132058033995600154940000004406304576709671608_);}
	.st9{fill-rule:evenodd;clip-rule:evenodd;fill:#A983BA;}
	.st10{fill-rule:evenodd;clip-rule:evenodd;fill:url(#SVGID_00000019666820542009747490000009223306670884721329_);}
	.st11{fill-rule:evenodd;clip-rule:evenodd;fill:#FFFFFF;}
	.st12{fill-rule:evenodd;clip-rule:evenodd;fill:#3F4895;}
	.st13{fill-rule:evenodd;clip-rule:evenodd;fill:url(#SVGID_00000044897701278028446260000002721265446632475563_);}
	.st14{fill-rule:evenodd;clip-rule:evenodd;fill:#43BCCF;}
	.st15{fill-rule:evenodd;clip-rule:evenodd;fill:url(#SVGID_00000173127384424226339910000003708442806848855988_);}
	.st16{fill-rule:evenodd;clip-rule:evenodd;fill:url(#SVGID_00000008860710210351003000000005187512945510557322_);}
	.st17{fill-rule:evenodd;clip-rule:evenodd;fill:url(#SVGID_00000172422765346072244330000015976385790426687107_);}
	.st18{fill-rule:evenodd;clip-rule:evenodd;fill:url(#SVGID_00000132772068636664638830000015877833548250643116_);}
	.st19{fill-rule:evenodd;clip-rule:evenodd;fill:url(#SVGID_00000077295820458230155330000011211274892780203693_);}
	.st20{fill-rule:evenodd;clip-rule:evenodd;fill:#C5CEEA;}
	.st21{fill-rule:evenodd;clip-rule:evenodd;fill:url(#SVGID_00000120539172666751067480000009175309073176574114_);}
	.st22{fill-rule:evenodd;clip-rule:evenodd;fill:#5C64AB;}
	.st23{fill-rule:evenodd;clip-rule:evenodd;fill:#283482;}
	.st24{fill-rule:evenodd;clip-rule:evenodd;fill:url(#SVGID_00000014601211166703541760000014963019108339829144_);}
	.st25{fill-rule:evenodd;clip-rule:evenodd;fill:#54529F;}
	.st26{fill-rule:evenodd;clip-rule:evenodd;fill:#C473AD;}
	.st27{fill-rule:evenodd;clip-rule:evenodd;fill:#020203;}
	.st28{fill-rule:evenodd;clip-rule:evenodd;fill:#E393BE;}
	.st29{opacity:0.5;fill-rule:evenodd;clip-rule:evenodd;fill:url(#SVGID_00000088845930922630396520000013662211919612337280_);}
	.st30{fill-rule:evenodd;clip-rule:evenodd;fill:#293170;}
	.st31{fill-rule:evenodd;clip-rule:evenodd;fill:url(#SVGID_00000055709484955588546050000015462187330955929761_);}
	.st32{fill-rule:evenodd;clip-rule:evenodd;fill:url(#SVGID_00000115514331417918441010000013154926030594712748_);}
	.st33{fill-rule:evenodd;clip-rule:evenodd;fill:url(#SVGID_00000057115742442462565420000012341412082069552291_);}
	.st34{fill-rule:evenodd;clip-rule:evenodd;fill:url(#SVGID_00000060740345770588590110000012854204546584497831_);}
	.st35{fill-rule:evenodd;clip-rule:evenodd;fill:url(#SVGID_00000121279638458876473180000013624419139368851609_);}
	.st36{fill-rule:evenodd;clip-rule:evenodd;fill:url(#SVGID_00000037687879260374109940000005663858836966175657_);}
	.st37{fill-rule:evenodd;clip-rule:evenodd;fill:url(#SVGID_00000036219078833091123470000010623706234755690667_);}
	.st38{fill-rule:evenodd;clip-rule:evenodd;fill:#F29184;}
	.st39{fill-rule:evenodd;clip-rule:evenodd;fill:url(#SVGID_00000065753536925097252750000015806457612341264562_);}
	.st40{opacity:0.25;fill-rule:evenodd;clip-rule:evenodd;fill:#4283C4;}
	.st41{fill-rule:evenodd;clip-rule:evenodd;fill:url(#SVGID_00000100370754821643955180000001756565187624087732_);}
	.st42{fill-rule:evenodd;clip-rule:evenodd;fill:#25193E;}
	.st43{fill-rule:evenodd;clip-rule:evenodd;fill:url(#SVGID_00000083085884183479610750000000503822270554833290_);}
	.st44{fill-rule:evenodd;clip-rule:evenodd;fill:url(#SVGID_00000119813294001905467280000017243392817997397168_);}
	.st45{fill-rule:evenodd;clip-rule:evenodd;fill:url(#SVGID_00000085226176182760512530000000669811026207469219_);}
	.st46{fill-rule:evenodd;clip-rule:evenodd;fill:#F28E81;}
	.st47{fill-rule:evenodd;clip-rule:evenodd;fill:#5A2E68;}
	.st48{fill-rule:evenodd;clip-rule:evenodd;fill:url(#SVGID_00000132800787896457203050000006270166268641753763_);}
	.st49{fill-rule:evenodd;clip-rule:evenodd;fill:#283583;}
	.st50{fill-rule:evenodd;clip-rule:evenodd;fill:url(#SVGID_00000134970481448472226950000015993041171848850829_);}
</style>
<g>
	<g>
		<g>
			<path class="st0" d="M138.76,250.94c-57.08,0-103.36-4.08-103.36-9.11c0-5.03,46.27-9.11,103.36-9.11
				c57.08,0,103.36,4.08,103.36,9.11C242.11,246.86,195.84,250.94,138.76,250.94z"/>
			<path class="st0" d="M153.88,247.62c-34.25,0-62.01-2.6-62.01-5.8c0-3.2,27.76-5.8,62.01-5.8s62.01,2.6,62.01,5.8
				C215.9,245.03,188.13,247.62,153.88,247.62z"/>
		</g>
		<path class="st1" d="M85.34,34.51l-0.52-4.21h-5.4l-0.52,4.21c-1.62,0.34-3.13,0.93-4.51,1.72l-3.24-2.51l-3.82,3.82l2.33,3.02
			c-1,1.44-1.74,3.06-2.15,4.8l-3.61,0.46v5.4l3.61,0.46c0.41,1.74,1.15,3.36,2.15,4.8l-2.33,3.02l3.82,3.82l3.24-2.51
			c1.37,0.8,2.89,1.39,4.51,1.73l0.52,4.21h5.4l0.52-4.21c1.62-0.34,3.13-0.93,4.51-1.73l3.24,2.51l3.82-3.82l-2.33-3.02
			c1-1.44,1.74-3.06,2.15-4.8l3.61-0.46v-5.4l-3.61-0.46c-0.41-1.74-1.15-3.36-2.15-4.8l2.33-3.02l-3.82-3.82l-3.24,2.51
			C88.48,35.44,86.96,34.85,85.34,34.51L85.34,34.51z M82.12,39.35c5.06,0,9.17,4.11,9.17,9.17c0,5.06-4.11,9.17-9.17,9.17
			c-5.06,0-9.17-4.11-9.17-9.17C72.95,43.45,77.06,39.35,82.12,39.35z"/>
		<g>
			<g>
				<linearGradient id="SVGID_1_" gradientUnits="userSpaceOnUse" x1="84.5586" y1="226.3023" x2="83.6248" y2="181.9367">
					<stop  offset="0" style="stop-color:#4384C5"/>
					<stop  offset="1" style="stop-color:#43BCD0"/>
				</linearGradient>
				<path class="st2" d="M48,178.87h72.3c3.21,0,5.83,2.62,5.83,5.83v43.92c0,3.21-2.62,5.83-5.83,5.83H48
					c-3.21,0-5.83-2.62-5.83-5.83V184.7C42.16,181.49,44.79,178.87,48,178.87z"/>
				<g>
					<path class="st3" d="M102.44,185.2c4.51,0,8.16,3.65,8.16,8.16c0,4.51-3.65,8.16-8.16,8.16c-4.51,0-8.16-3.65-8.16-8.16
						C94.28,188.85,97.93,185.2,102.44,185.2z"/>
					<path class="st3" d="M114.05,185.2c4.51,0,8.16,3.65,8.16,8.16c0,4.51-3.65,8.16-8.16,8.16c-4.51,0-8.16-3.65-8.16-8.16
						C105.89,188.85,109.54,185.2,114.05,185.2z"/>
				</g>
				<g>
					<g>
						<path class="st4" d="M47.58,213.17h15.2c0.83,0,1.5,0.68,1.5,1.5v1.17c0,0.83-0.68,1.5-1.5,1.5h-15.2
							c-0.83,0-1.5-0.68-1.5-1.5v-1.17C46.08,213.84,46.75,213.17,47.58,213.17z"/>
						<path class="st4" d="M66.89,213.17h15.2c0.83,0,1.5,0.68,1.5,1.5v1.17c0,0.83-0.68,1.5-1.5,1.5h-15.2
							c-0.83,0-1.5-0.68-1.5-1.5v-1.17C65.39,213.84,66.06,213.17,66.89,213.17z"/>
						<path class="st4" d="M86.2,213.17h15.2c0.83,0,1.5,0.68,1.5,1.5v1.17c0,0.83-0.68,1.5-1.5,1.5H86.2c-0.83,0-1.5-0.68-1.5-1.5
							v-1.17C84.69,213.84,85.37,213.17,86.2,213.17z"/>
						<path class="st4" d="M105.51,213.17h15.2c0.83,0,1.5,0.68,1.5,1.5v1.17c0,0.83-0.68,1.5-1.5,1.5h-15.2
							c-0.83,0-1.5-0.68-1.5-1.5v-1.17C104,213.84,104.68,213.17,105.51,213.17z"/>
					</g>
					<path class="st4" d="M47.58,221.1h31.73c0.83,0,1.5,0.68,1.5,1.5v1.17c0,0.83-0.68,1.5-1.5,1.5H47.58c-0.83,0-1.5-0.68-1.5-1.5
						v-1.17C46.08,221.78,46.75,221.1,47.58,221.1z"/>
				</g>
			</g>
			<g>
				
					<linearGradient id="SVGID_00000020356536520002240600000007465972730850582663_" gradientUnits="userSpaceOnUse" x1="54.5601" y1="186.7787" x2="59.61" y2="203.6293">
					<stop  offset="0" style="stop-color:#E494BF"/>
					<stop  offset="1" style="stop-color:#736BAF"/>
				</linearGradient>
				<path style="fill-rule:evenodd;clip-rule:evenodd;fill:url(#SVGID_00000020356536520002240600000007465972730850582663_);" d="
					M57.17,184.4c6.13,0,11.1,4.97,11.1,11.1c0,6.13-4.97,11.1-11.1,11.1c-6.13,0-11.1-4.97-11.1-11.1
					C46.08,189.37,51.04,184.4,57.17,184.4z"/>
				<path class="st6" d="M57.17,186.47c2.49,0,4.75,1.01,6.38,2.64c1.63,1.63,2.64,3.89,2.64,6.38c0,2.49-1.01,4.75-2.64,6.38
					c-1.63,1.63-3.89,2.64-6.38,2.64c-2.49,0-4.75-1.01-6.38-2.64c-1.63-1.63-2.64-3.89-2.64-6.38c0-2.49,1.01-4.75,2.64-6.38
					C52.42,187.48,54.68,186.47,57.17,186.47L57.17,186.47z M62.47,190.2c-1.36-1.36-3.23-2.2-5.3-2.2c-2.07,0-3.94,0.84-5.3,2.2
					c-1.36,1.36-2.2,3.23-2.2,5.3c0,2.07,0.84,3.94,2.2,5.3c1.36,1.36,3.23,2.2,5.3,2.2c2.07,0,3.94-0.84,5.3-2.2
					c1.36-1.36,2.19-3.23,2.19-5.3C64.67,193.42,63.83,191.55,62.47,190.2z"/>
				<path class="st6" d="M60.63,197.15c0,1.02-0.3,1.83-0.89,2.46c-0.55,0.57-1.23,0.87-2.05,0.91v0.64h-0.97v-0.64
					c-0.89,0-1.6-0.24-2.14-0.73c-0.58-0.54-0.87-1.29-0.87-2.25h2.12c0,0.51,0.23,0.87,0.69,1.06c0.3,0.12,0.99,0.18,1.28,0.04
					c0.45-0.23,0.67-0.61,0.67-1.14c0-0.5-0.2-0.84-0.59-1.01c-0.35-0.15-0.87-0.19-1.26-0.28c-1.81-0.41-2.72-1.39-2.72-2.94
					c0-0.76,0.27-1.41,0.82-1.95c0.54-0.55,1.21-0.85,2-0.9l0.02-0.58h0.97l-0.02,0.58c0.77,0.04,1.4,0.29,1.9,0.77
					c0.5,0.47,0.75,1.09,0.75,1.84h-2.07c-0.03-0.28-0.16-0.5-0.39-0.68c-0.28-0.22-1.06-0.16-1.36,0.03
					c-0.34,0.21-0.51,0.52-0.51,0.94c0,0.3,0.09,0.52,0.27,0.66c0.26,0.19,1.34,0.38,1.74,0.5c0.65,0.18,1.2,0.47,1.68,0.87
					C60.32,195.84,60.63,196.45,60.63,197.15z"/>
			</g>
			
				<linearGradient id="SVGID_00000183959954453603554830000013667458030030642052_" gradientUnits="userSpaceOnUse" x1="99.8386" y1="226.4279" x2="99.3664" y2="181.924">
				<stop  offset="0" style="stop-color:#4384C5"/>
				<stop  offset="1" style="stop-color:#43BCD0"/>
			</linearGradient>
			
				<path style="opacity:0.5;fill-rule:evenodd;clip-rule:evenodd;fill:url(#SVGID_00000183959954453603554830000013667458030030642052_);" d="
				M78.29,178.87h36.49c3.21,0,5.83,2.62,5.83,5.83v43.92c0,3.21-2.62,5.83-5.83,5.83h-2.63c-0.6-1.3-1.09-2.89-1.59-4.5
				l-3.91-12.61c-0.03-0.1-0.05-0.21-0.06-0.31c-5.96-4.66-10.78-6.22-14.06-12.58l-8.79-3.02c-2.84-0.97-5.45-2.45-5.45-5.45
				V178.87z"/>
		</g>
		<path class="st1" d="M229.2,169.13l-0.84-6.75h-8.65l-0.84,6.75c-2.59,0.54-5.02,1.49-7.22,2.76l-5.19-4.02l-6.12,6.12l3.74,4.83
			c-1.61,2.3-2.79,4.9-3.44,7.68l-5.79,0.74v8.65l5.79,0.74c0.65,2.79,1.84,5.38,3.44,7.68l-3.74,4.83l6.12,6.12l5.19-4.02
			c2.2,1.27,4.63,2.22,7.22,2.76l0.84,6.75h8.65l0.84-6.75c2.59-0.54,5.02-1.49,7.22-2.76l5.19,4.02l6.12-6.12l-3.74-4.83
			c1.61-2.3,2.79-4.9,3.44-7.68l5.79-0.74v-8.65l-5.79-0.74c-0.65-2.79-1.84-5.38-3.44-7.68l3.74-4.83l-6.12-6.12l-5.19,4.02
			C234.22,170.62,231.79,169.67,229.2,169.13L229.2,169.13z M224.04,176.87c8.11,0,14.69,6.58,14.69,14.69
			c0,8.11-6.58,14.69-14.69,14.69c-8.11,0-14.69-6.58-14.69-14.69C209.35,183.45,215.93,176.87,224.04,176.87z"/>
		<g>
			<path class="st1" d="M231.22,64.31c15.56,0,28.18,12.62,28.18,28.18c0,15.56-12.62,28.18-28.18,28.18
				c-15.56,0-28.18-12.62-28.18-28.18C203.03,76.93,215.65,64.31,231.22,64.31L231.22,64.31z M204.22,67.06l-0.67,0.71l2.59,2.44
				l0.67-0.71c0.86-0.92,1.78-1.78,2.74-2.6c0.96-0.81,1.96-1.57,3-2.27l0.81-0.55l-1.98-2.96l-0.81,0.55
				c-1.15,0.77-2.26,1.61-3.32,2.51C206.18,65.08,205.17,66.04,204.22,67.06L204.22,67.06z M213.78,59.75
				c0.9-0.48,1.82-0.93,2.76-1.33c0.94-0.4,1.9-0.77,2.86-1.09l0.93-0.31l1.13,3.38l-0.93,0.31c-0.88,0.29-1.74,0.63-2.59,0.99
				c-0.85,0.36-1.68,0.76-2.5,1.2l-0.86,0.46l-1.68-3.14L213.78,59.75L213.78,59.75z M222.37,56.46l-0.95,0.23l0.84,3.46l0.95-0.23
				c0.67-0.16,1.34-0.31,2.01-0.43c0.67-0.12,1.35-0.22,2.03-0.3l0.97-0.11l-0.4-3.54l-0.98,0.12c-0.75,0.09-1.5,0.2-2.25,0.34
				C223.85,56.13,223.11,56.28,222.37,56.46L222.37,56.46z M229.45,55.44c0.29-0.01,0.59-0.02,0.89-0.03l0.89-0.01l0.84,0.01
				l1.81,0.06l-0.15,3.56L232,58.97l-0.77-0.01l-0.81,0.01c-0.27,0.01-0.54,0.02-0.81,0.03l-0.98,0.04l-0.15-3.56L229.45,55.44
				L229.45,55.44z M235.39,55.63c0.43,0.05,0.86,0.1,1.29,0.17c0.43,0.06,0.86,0.14,1.28,0.22l0.96,0.18l-0.64,3.5l-0.96-0.17
				c-0.39-0.07-0.77-0.13-1.16-0.19c-0.39-0.06-0.77-0.11-1.16-0.15l-0.97-0.11l0.39-3.54L235.39,55.63L235.39,55.63z M248.94,59.9
				l-0.86-0.47l-1.7,3.13l0.86,0.47c5.3,2.89,9.74,7.17,12.82,12.36c3.08,5.19,4.68,11.07,4.68,17.11c0,3.04-0.38,6.08-1.18,9.01
				c-0.77,2.82-1.93,5.53-3.46,8.03l-0.51,0.83l3.04,1.87l0.51-0.83c1.71-2.78,3-5.81,3.86-8.96c0.89-3.24,1.31-6.59,1.31-9.95
				c0-6.68-1.77-13.18-5.18-18.92C259.72,67.83,254.8,63.1,248.94,59.9L248.94,59.9z M253.6,121.97l0.78-0.59l-2.16-2.83l-0.78,0.59
				c-2.9,2.21-6.14,3.95-9.59,5.13c-3.43,1.17-7.01,1.75-10.63,1.75c-2.81,0-5.61-0.35-8.33-1.04c-2.71-0.69-5.33-1.73-7.78-3.07
				l-0.86-0.47l-1.72,3.12l0.86,0.47c2.72,1.49,5.61,2.64,8.61,3.4c3.01,0.77,6.1,1.15,9.21,1.15c4.01,0,7.98-0.66,11.78-1.95
				C246.81,126.34,250.39,124.42,253.6,121.97L253.6,121.97z M203.47,117.12l0.65,0.73l2.66-2.37l-0.65-0.73
				c-2.7-3.04-4.84-6.55-6.28-10.35c-1.44-3.81-2.17-7.83-2.17-11.9c0-3.25,0.46-6.48,1.39-9.59c0.93-3.11,2.3-6.06,4.08-8.77
				l0.54-0.82l-2.98-1.95l-0.54,0.82c-1.97,3-3.49,6.27-4.51,9.71c-1.02,3.44-1.54,7.01-1.54,10.61c0,4.5,0.81,8.96,2.41,13.17
				C198.12,109.87,200.48,113.75,203.47,117.12L203.47,117.12z M231.22,69.57c-6.33,0-12.06,2.57-16.21,6.72
				c-4.15,4.15-6.72,9.88-6.72,16.21c0,6.33,2.57,12.06,6.72,16.21c4.15,4.15,9.88,6.72,16.21,6.72c6.33,0,12.06-2.57,16.21-6.72
				c4.15-4.15,6.72-9.88,6.72-16.21c0-6.33-2.57-12.06-6.72-16.21C243.28,72.13,237.55,69.57,231.22,69.57L231.22,69.57z
				 M244.67,79.03c-3.44-3.44-8.2-5.58-13.46-5.58c-5.26,0-10.02,2.13-13.46,5.58c-3.44,3.44-5.58,8.2-5.58,13.46
				c0,5.26,2.13,10.02,5.58,13.46c3.44,3.44,8.2,5.58,13.46,5.58c5.26,0,10.02-2.13,13.46-5.58c3.44-3.44,5.58-8.2,5.58-13.46
				C250.25,87.24,248.12,82.48,244.67,79.03z"/>
			<g>
				<g>
					
						<linearGradient id="SVGID_00000104694004663642160120000001616470088075321756_" gradientUnits="userSpaceOnUse" x1="228.1297" y1="82.1969" x2="234.0957" y2="102.104">
						<stop  offset="0" style="stop-color:#E494BF"/>
						<stop  offset="1" style="stop-color:#736BAF"/>
					</linearGradient>
					
						<circle style="fill-rule:evenodd;clip-rule:evenodd;fill:url(#SVGID_00000104694004663642160120000001616470088075321756_);" cx="231.22" cy="92.49" r="13.11"/>
					<path class="st6" d="M231.22,81.83c2.94,0,5.61,1.19,7.54,3.12c1.93,1.93,3.12,4.6,3.12,7.54c0,2.95-1.19,5.61-3.12,7.54
						c-1.93,1.93-4.6,3.12-7.54,3.12c-2.94,0-5.61-1.19-7.54-3.12c-1.93-1.93-3.12-4.6-3.12-7.54c0-2.94,1.19-5.61,3.12-7.54
						C225.6,83.02,228.27,81.83,231.22,81.83L231.22,81.83z M237.48,86.23c-1.6-1.6-3.82-2.59-6.26-2.59
						c-2.44,0-4.66,0.99-6.26,2.59c-1.6,1.6-2.59,3.82-2.59,6.26c0,2.44,0.99,4.66,2.59,6.26c1.6,1.6,3.82,2.59,6.26,2.59
						c2.44,0,4.66-0.99,6.26-2.59c1.6-1.6,2.59-3.82,2.59-6.26C240.07,90.05,239.08,87.83,237.48,86.23z"/>
					<path class="st6" d="M235.3,94.45c0,1.2-0.35,2.17-1.05,2.9c-0.65,0.67-1.45,1.03-2.42,1.08v0.76h-1.15v-0.76
						c-1.05,0-1.89-0.29-2.53-0.86c-0.68-0.63-1.03-1.52-1.03-2.66h2.5c0,0.61,0.27,1.02,0.82,1.25c0.35,0.15,1.17,0.22,1.51,0.04
						c0.53-0.27,0.8-0.72,0.8-1.34c0-0.6-0.23-0.99-0.69-1.19c-0.41-0.18-1.03-0.22-1.49-0.33c-2.14-0.49-3.22-1.65-3.22-3.48
						c0-0.89,0.32-1.66,0.97-2.31c0.64-0.65,1.43-1,2.36-1.07l0.02-0.68h1.15l-0.02,0.68c0.9,0.04,1.65,0.34,2.24,0.9
						c0.59,0.56,0.88,1.28,0.88,2.17h-2.45c-0.04-0.33-0.19-0.6-0.46-0.81c-0.34-0.26-1.25-0.19-1.61,0.03
						c-0.4,0.24-0.6,0.61-0.6,1.11c0,0.35,0.11,0.61,0.32,0.77c0.3,0.23,1.58,0.45,2.06,0.59c0.76,0.21,1.42,0.56,1.98,1.03
						C234.93,92.91,235.3,93.63,235.3,94.45z"/>
				</g>
				<path class="st9" d="M218.66,80.66c0.44-0.47,0.91-0.92,1.41-1.34c0.49-0.42,1.01-0.81,1.54-1.17l0.38-0.25l0.92,1.38
					l-0.38,0.25c-0.48,0.33-0.95,0.68-1.4,1.06c-0.45,0.38-0.87,0.78-1.27,1.21l-0.31,0.33l-1.21-1.14L218.66,80.66L218.66,80.66z
					 M223.1,77.26l-0.4,0.21l0.78,1.46l0.4-0.21c0.38-0.2,0.77-0.39,1.16-0.56c0.39-0.17,0.8-0.32,1.2-0.46l0.43-0.14l-0.53-1.57
					l-0.43,0.14c-0.45,0.15-0.9,0.32-1.33,0.51C223.95,76.83,223.52,77.04,223.1,77.26L223.1,77.26z M227.1,75.73
					c0.34-0.08,0.69-0.16,1.03-0.22c0.35-0.06,0.7-0.12,1.05-0.16l0.45-0.05l0.19,1.65l-0.45,0.05c-0.32,0.04-0.63,0.08-0.94,0.14
					c-0.31,0.06-0.63,0.12-0.93,0.2l-0.44,0.11l-0.39-1.61L227.1,75.73L227.1,75.73z M230.39,75.26c0.14-0.01,0.27-0.01,0.41-0.01
					l0.41-0.01l0.39,0.01l0.84,0.03l-0.07,1.66l-0.8-0.03l-0.36,0l-0.38,0c-0.13,0-0.25,0.01-0.38,0.01l-0.46,0.02l-0.07-1.66
					L230.39,75.26L230.39,75.26z M233.16,75.35c0.2,0.02,0.4,0.05,0.6,0.08c0.2,0.03,0.4,0.06,0.6,0.1l0.45,0.08l-0.3,1.63
					l-0.45-0.08c-0.18-0.03-0.36-0.06-0.54-0.09c-0.18-0.03-0.36-0.05-0.54-0.07l-0.45-0.05l0.18-1.65L233.16,75.35L233.16,75.35z
					 M239.46,77.33c2.73,1.49,5.01,3.69,6.6,6.36c1.59,2.67,2.41,5.7,2.41,8.8c0,1.56-0.2,3.12-0.61,4.63c-0.4,1.47-1,2.87-1.8,4.17
					l-0.24,0.39l-1.41-0.87l0.24-0.39c0.71-1.16,1.25-2.42,1.61-3.73c0.37-1.36,0.55-2.78,0.55-4.19c0-2.81-0.74-5.54-2.18-7.96
					c-1.43-2.41-3.5-4.41-5.97-5.75l-0.4-0.22l0.79-1.45L239.46,77.33L239.46,77.33z M241.63,106.2c-1.49,1.14-3.16,2.03-4.93,2.64
					c-1.77,0.6-3.61,0.91-5.48,0.91c-1.44,0-2.88-0.18-4.28-0.54c-1.4-0.36-2.74-0.89-4.01-1.58l-0.4-0.22l0.8-1.45l0.4,0.22
					c1.14,0.63,2.36,1.11,3.62,1.43c1.27,0.32,2.57,0.48,3.87,0.48c1.68,0,3.35-0.27,4.94-0.82c1.61-0.55,3.11-1.36,4.46-2.39
					l0.36-0.28l1.01,1.32L241.63,106.2L241.63,106.2z M218.31,103.95c-1.39-1.57-2.49-3.37-3.23-5.33
					c-0.74-1.96-1.12-4.03-1.12-6.12c0-1.67,0.24-3.33,0.72-4.93c0.48-1.6,1.18-3.12,2.1-4.52l0.25-0.38l1.39,0.91l-0.25,0.38
					c-0.83,1.26-1.47,2.64-1.9,4.08c-0.43,1.45-0.65,2.95-0.65,4.46c0,1.89,0.34,3.77,1.01,5.54c0.67,1.77,1.66,3.4,2.92,4.82
					l0.3,0.34l-1.24,1.1L218.31,103.95z"/>
			</g>
		</g>
		<g>
			
				<linearGradient id="SVGID_00000031170550979298551810000010595490665926961813_" gradientUnits="userSpaceOnUse" x1="223.8" y1="166.5778" x2="237.0517" y2="121.8534">
				<stop  offset="0" style="stop-color:#4654A1"/>
				<stop  offset="1" style="stop-color:#478AC9"/>
			</linearGradient>
			<path style="fill-rule:evenodd;clip-rule:evenodd;fill:url(#SVGID_00000031170550979298551810000010595490665926961813_);" d="
				M193.98,117.41h72.3c3.21,0,5.83,2.62,5.83,5.83v43.92c0,3.21-2.62,5.83-5.83,5.83h-72.3c-3.21,0-5.83-2.62-5.83-5.83v-43.92
				C188.15,120.03,190.78,117.41,193.98,117.41z"/>
			<g>
				<g>
					<path class="st11" d="M193.57,151.71h15.2c0.83,0,1.5,0.68,1.5,1.5v1.17c0,0.83-0.68,1.5-1.5,1.5h-15.2
						c-0.83,0-1.5-0.68-1.5-1.5v-1.17C192.06,152.39,192.74,151.71,193.57,151.71z"/>
					<path class="st11" d="M212.88,151.71h15.2c0.83,0,1.5,0.68,1.5,1.5v1.17c0,0.83-0.68,1.5-1.5,1.5h-15.2
						c-0.83,0-1.5-0.68-1.5-1.5v-1.17C211.37,152.39,212.05,151.71,212.88,151.71z"/>
					<path class="st11" d="M232.19,151.71h15.2c0.83,0,1.5,0.68,1.5,1.5v1.17c0,0.83-0.68,1.5-1.5,1.5h-15.2
						c-0.83,0-1.5-0.68-1.5-1.5v-1.17C230.68,152.39,231.36,151.71,232.19,151.71z"/>
					<path class="st11" d="M251.49,151.71h15.2c0.83,0,1.5,0.68,1.5,1.5v1.17c0,0.83-0.68,1.5-1.5,1.5h-15.2
						c-0.83,0-1.5-0.68-1.5-1.5v-1.17C249.99,152.39,250.67,151.71,251.49,151.71z"/>
				</g>
				<path class="st11" d="M193.57,159.65h31.73c0.83,0,1.5,0.68,1.5,1.5v1.17c0,0.83-0.68,1.5-1.5,1.5h-31.73
					c-0.83,0-1.5-0.68-1.5-1.5v-1.17C192.06,160.32,192.74,159.65,193.57,159.65z"/>
			</g>
		</g>
		<g>
			<path class="st12" d="M68.33,117.01h8.95v1.84h-8.95V117.01L68.33,117.01z M79.58,117.01h6.66v1.84h-6.66V117.01L79.58,117.01z
				 M88.11,117.01h4.86v1.84h-4.86V117.01L88.11,117.01z M95.3,117.01h2.4v1.84h-2.4V117.01L95.3,117.01z M101.06,117.01v1.84h4.48
				c1.1,0,2.11,0.45,2.84,1.18c0.73,0.73,1.18,1.73,1.18,2.84v37.19c0,1.1-0.45,2.11-1.18,2.84c-0.73,0.73-1.73,1.18-2.84,1.18
				H61.42c-1.1,0-2.11-0.45-2.84-1.18c-0.73-0.73-1.18-1.73-1.18-2.84v-37.19c0-1.1,0.45-2.11,1.18-2.84
				c0.73-0.73,1.73-1.18,2.84-1.18h4.54v-1.84h-4.54c-1.61,0-3.08,0.66-4.14,1.72c-1.06,1.06-1.72,2.52-1.72,4.14v37.19
				c0,1.61,0.66,3.08,1.72,4.14c1.06,1.06,2.53,1.72,4.14,1.72h44.12c1.61,0,3.07-0.66,4.14-1.72c1.06-1.06,1.72-2.53,1.72-4.14
				v-37.19c0-1.61-0.66-3.07-1.72-4.14c-1.06-1.06-2.53-1.72-4.14-1.72H101.06z"/>
			<g>
				
					<linearGradient id="SVGID_00000070821378052697851730000001785540920355951760_" gradientUnits="userSpaceOnUse" x1="83.5303" y1="125.6164" x2="79.7125" y2="156.7686">
					<stop  offset="0" style="stop-color:#3F4896"/>
					<stop  offset="1" style="stop-color:#283583"/>
				</linearGradient>
				<path style="fill-rule:evenodd;clip-rule:evenodd;fill:url(#SVGID_00000070821378052697851730000001785540920355951760_);" d="
					M63.52,121.34h36.05c2.56,0,4.66,2.21,4.66,4.91v31.08c0,2.7-2.1,4.91-4.66,4.91H63.52c-2.56,0-4.66-2.21-4.66-4.91v-31.08
					C58.86,123.55,60.96,121.34,63.52,121.34z"/>
				<g>
					<path class="st14" d="M73.95,145.07h15.2c0.83,0,1.5,0.68,1.5,1.5v1.17c0,0.83-0.68,1.5-1.5,1.5h-15.2
						c-0.83,0-1.5-0.68-1.5-1.5v-1.17C72.44,145.74,73.12,145.07,73.95,145.07z"/>
					<path class="st14" d="M65.68,152.42h31.73c0.83,0,1.5,0.68,1.5,1.5v1.17c0,0.83-0.68,1.5-1.5,1.5H65.68
						c-0.83,0-1.5-0.68-1.5-1.5v-1.17C64.18,153.1,64.86,152.42,65.68,152.42z"/>
					<g>
						<path class="st14" d="M81.55,126.88c2.44,0,4.42,1.98,4.42,4.42c0,2.44-1.98,4.42-4.42,4.42c-2.44,0-4.42-1.98-4.42-4.42
							C77.13,128.86,79.11,126.88,81.55,126.88z"/>
						<path class="st14" d="M84.97,135.21c1.9,0.4,3.35,2.1,3.35,4.12v2.32H74.78v-2.32c0-2.02,1.44-3.72,3.35-4.12
							c0.91,0.8,2.11,1.29,3.42,1.29S84.05,136.01,84.97,135.21z"/>
					</g>
				</g>
			</g>
		</g>
		<path class="st1" d="M203.13,113.23h14.57v1.84h-14.57V113.23L203.13,113.23z M220.82,113.23h11.46v1.84h-11.46V113.23
			L220.82,113.23z M234.81,113.23h9.03v1.84h-9.03V113.23L234.81,113.23z M247,113.23h5.68v1.84H247V113.23L247,113.23z
			 M262.11,113.23v1.84h8.56c1.59,0,3.03,0.65,4.08,1.7c1.05,1.05,1.7,2.49,1.7,4.08v50.43c0,1.59-0.65,3.03-1.7,4.08
			c-1.05,1.05-2.49,1.7-4.08,1.7h-79.34c-1.59,0-3.03-0.65-4.08-1.7c-1.05-1.05-1.7-2.49-1.7-4.08v-50.43c0-1.59,0.65-3.03,1.7-4.08
			c1.05-1.05,2.49-1.7,4.08-1.7h8.58v-1.84h-8.58c-2.09,0-4,0.86-5.38,2.24c-1.38,1.38-2.24,3.28-2.24,5.38v50.43
			c0,2.09,0.86,4,2.24,5.38c1.38,1.38,3.28,2.24,5.38,2.24h79.34c2.09,0,4-0.86,5.38-2.24c1.38-1.38,2.24-3.28,2.24-5.38v-50.43
			c0-2.09-0.86-4-2.24-5.38c-1.38-1.38-3.28-2.24-5.38-2.24H262.11z"/>
		<g>
			
				<linearGradient id="SVGID_00000023970231874390254270000001357711868359563166_" gradientUnits="userSpaceOnUse" x1="121.22" y1="78.8745" x2="130.8826" y2="42.0656">
				<stop  offset="0" style="stop-color:#5C64AB"/>
				<stop  offset="1" style="stop-color:#54ABE0"/>
			</linearGradient>
			<path style="fill-rule:evenodd;clip-rule:evenodd;fill:url(#SVGID_00000023970231874390254270000001357711868359563166_);" d="
				M110.7,40.15h8.5v1.84h-8.5V40.15L110.7,40.15z M121.39,40.15h6.32v1.84h-6.32V40.15L121.39,40.15z M129.48,40.15h4.62v1.84
				h-4.62V40.15L129.48,40.15z M136.32,40.15h2.27v1.84h-2.27V40.15L136.32,40.15z M141.78,40.15v1.84h4.25
				c1.03,0,1.97,0.44,2.65,1.14c0.69,0.71,1.12,1.69,1.12,2.78v36.45c0,1.08-0.43,2.07-1.12,2.78c-0.68,0.7-1.62,1.14-2.65,1.14
				h-41.89c-1.03,0-1.97-0.44-2.65-1.14c-0.69-0.71-1.12-1.69-1.12-2.78V45.9c0-1.09,0.43-2.07,1.12-2.78
				c0.68-0.7,1.62-1.14,2.65-1.14h4.31v-1.84h-4.31c-1.55,0-2.95,0.65-3.97,1.7c-1.01,1.04-1.64,2.48-1.64,4.06v36.45
				c0,1.58,0.63,3.01,1.64,4.06c1.02,1.05,2.42,1.7,3.97,1.7h41.89c1.54,0,2.95-0.65,3.97-1.7c1.01-1.04,1.64-2.48,1.64-4.05V45.9
				c0-1.58-0.63-3.01-1.64-4.06c-1.02-1.05-2.42-1.7-3.97-1.7H141.78z"/>
			<g>
				
					<linearGradient id="SVGID_00000103228276361000438820000009941877843109287348_" gradientUnits="userSpaceOnUse" x1="125.3639" y1="77.7696" x2="134.9358" y2="48.401">
					<stop  offset="0" style="stop-color:#5C64AB"/>
					<stop  offset="1" style="stop-color:#54ABE0"/>
				</linearGradient>
				<path style="fill-rule:evenodd;clip-rule:evenodd;fill:url(#SVGID_00000103228276361000438820000009941877843109287348_);" d="
					M106.29,44.16h36.05c2.56,0,4.66,2.21,4.66,4.91v22.92l10.84,8.44L147,80.37c-0.11,2.6-2.16,4.69-4.66,4.69h-36.05
					c-2.56,0-4.66-2.21-4.66-4.91V49.07C101.63,46.37,103.73,44.16,106.29,44.16z"/>
				<g>
					<path class="st11" d="M115.42,75.72h17.79c0.73,0,1.33,0.6,1.33,1.33v1.04c0,0.73-0.6,1.33-1.33,1.33h-17.79
						c-0.73,0-1.33-0.6-1.33-1.33v-1.04C114.09,76.32,114.69,75.72,115.42,75.72z"/>
					<path class="st11" d="M122.47,73.66V63.65c0-0.54,0.6-0.99,1.33-0.99h1.04c0.73,0,1.33,0.45,1.33,0.99v10.01
						c0,0.54-0.6,0.99-1.33,0.99h-1.04C123.07,74.65,122.47,74.2,122.47,73.66z"/>
					<g>
						<path class="st11" d="M115.06,73.66V63.65c0-0.54,0.6-0.99,1.33-0.99h1.04c0.73,0,1.33,0.45,1.33,0.99v10.01
							c0,0.54-0.6,0.99-1.33,0.99h-1.04C115.66,74.65,115.06,74.2,115.06,73.66z"/>
						<path class="st11" d="M129.88,73.66V63.65c0-0.54,0.6-0.99,1.33-0.99h1.04c0.73,0,1.33,0.45,1.33,0.99v10.01
							c0,0.54-0.6,0.99-1.33,0.99h-1.04C130.48,74.65,129.88,74.2,129.88,73.66z"/>
					</g>
					<path class="st11" d="M115.43,58.15l7.99-7.99c0.25-0.25,0.57-0.37,0.9-0.36c0.33-0.01,0.66,0.11,0.91,0.36l7.99,7.99h0.01
						c0.73,0,1.33,0.6,1.33,1.33v1.04c0,0.73-0.6,1.33-1.33,1.33h-17.79c-0.73,0-1.33-0.6-1.33-1.33v-1.04
						C114.09,58.75,114.69,58.15,115.43,58.15L115.43,58.15L115.43,58.15z M124.32,54.14l-4.01,4.01h8.02L124.32,54.14z"/>
				</g>
			</g>
		</g>
		<g>
			<g>
				
					<linearGradient id="SVGID_00000101821399882844564280000009884771199380265887_" gradientUnits="userSpaceOnUse" x1="214.373" y1="126.7422" x2="218.9193" y2="141.9121">
					<stop  offset="0" style="stop-color:#E494BF"/>
					<stop  offset="1" style="stop-color:#736BAF"/>
				</linearGradient>
				<path style="fill-rule:evenodd;clip-rule:evenodd;fill:url(#SVGID_00000101821399882844564280000009884771199380265887_);" d="
					M216.72,124.6c5.52,0,9.99,4.47,9.99,9.99c0,5.52-4.47,9.99-9.99,9.99c-5.52,0-9.99-4.47-9.99-9.99
					C206.74,129.07,211.21,124.6,216.72,124.6z"/>
				<path class="st6" d="M216.72,126.46c2.24,0,4.28,0.91,5.75,2.38c1.47,1.47,2.38,3.5,2.38,5.75s-0.91,4.28-2.38,5.75
					c-1.47,1.47-3.5,2.38-5.75,2.38c-2.24,0-4.28-0.91-5.75-2.38c-1.47-1.47-2.38-3.5-2.38-5.75c0-2.24,0.91-4.28,2.38-5.75
					C212.45,127.37,214.48,126.46,216.72,126.46L216.72,126.46z M221.5,129.82c-1.22-1.22-2.91-1.98-4.77-1.98
					c-1.86,0-3.55,0.76-4.77,1.98c-1.22,1.22-1.98,2.91-1.98,4.77c0,1.86,0.76,3.55,1.98,4.77c1.22,1.22,2.91,1.98,4.77,1.98
					c1.86,0,3.55-0.76,4.77-1.98c1.22-1.22,1.98-2.91,1.98-4.77C223.47,132.73,222.72,131.04,221.5,129.82z"/>
				<path class="st6" d="M219.84,136.08c0,0.91-0.27,1.65-0.8,2.21c-0.49,0.51-1.11,0.78-1.85,0.82v0.58h-0.88v-0.58
					c-0.8,0-1.44-0.22-1.92-0.66c-0.52-0.48-0.78-1.16-0.78-2.03h1.91c0,0.46,0.21,0.78,0.62,0.95c0.27,0.11,0.89,0.17,1.15,0.03
					c0.4-0.21,0.61-0.55,0.61-1.02c0-0.45-0.18-0.76-0.53-0.91c-0.31-0.14-0.78-0.17-1.14-0.25c-1.63-0.37-2.45-1.25-2.45-2.65
					c0-0.68,0.24-1.27,0.74-1.76c0.49-0.49,1.09-0.76,1.8-0.81l0.02-0.52h0.88l-0.02,0.52c0.69,0.03,1.26,0.26,1.71,0.69
					c0.45,0.43,0.67,0.98,0.67,1.65h-1.87c-0.03-0.25-0.15-0.45-0.35-0.62c-0.26-0.2-0.95-0.14-1.23,0.02
					c-0.31,0.19-0.46,0.47-0.46,0.85c0,0.27,0.08,0.47,0.25,0.59c0.23,0.17,1.21,0.35,1.57,0.45c0.58,0.16,1.08,0.43,1.51,0.79
					C219.56,134.9,219.84,135.45,219.84,136.08z"/>
			</g>
			<path class="st1" d="M207.16,125.57c0.34-0.36,0.7-0.7,1.07-1.02c0.38-0.32,0.77-0.62,1.18-0.89l0.29-0.19l0.7,1.05l-0.29,0.19
				c-0.37,0.25-0.72,0.52-1.06,0.8c-0.34,0.29-0.66,0.6-0.97,0.92l-0.24,0.25l-0.92-0.87L207.16,125.57L207.16,125.57z
				 M210.54,122.98l-0.31,0.16l0.59,1.11l0.31-0.16c0.29-0.15,0.58-0.3,0.89-0.42c0.3-0.13,0.61-0.25,0.92-0.35l0.33-0.11l-0.4-1.2
				l-0.33,0.11c-0.34,0.12-0.68,0.24-1.02,0.39C211.19,122.65,210.86,122.81,210.54,122.98L210.54,122.98z M213.59,121.82
				c0.26-0.06,0.52-0.12,0.79-0.17c0.26-0.05,0.53-0.09,0.8-0.12l0.35-0.04l0.14,1.25l-0.34,0.04c-0.24,0.03-0.48,0.06-0.72,0.11
				c-0.24,0.04-0.48,0.09-0.71,0.15l-0.34,0.08l-0.3-1.23L213.59,121.82L213.59,121.82z M216.1,121.46c0.1,0,0.21-0.01,0.32-0.01
				l0.32,0l0.3,0l0.64,0.02l-0.05,1.26l-0.61-0.02l-0.27,0l-0.29,0c-0.1,0-0.19,0.01-0.29,0.01l-0.35,0.02l-0.05-1.26L216.1,121.46
				L216.1,121.46z M218.21,121.52c0.15,0.02,0.3,0.04,0.46,0.06c0.15,0.02,0.3,0.05,0.46,0.08l0.34,0.06l-0.23,1.24l-0.34-0.06
				c-0.14-0.03-0.27-0.05-0.41-0.07c-0.14-0.02-0.27-0.04-0.41-0.05l-0.34-0.04l0.14-1.25L218.21,121.52L218.21,121.52z
				 M223.01,123.04c2.08,1.13,3.82,2.81,5.03,4.84c1.21,2.03,1.84,4.34,1.84,6.71c0,1.19-0.15,2.38-0.47,3.53
				c-0.3,1.12-0.76,2.19-1.37,3.18l-0.18,0.3l-1.08-0.66l0.18-0.3c0.54-0.88,0.95-1.84,1.23-2.85c0.28-1.04,0.42-2.12,0.42-3.19
				c0-2.14-0.57-4.22-1.66-6.06c-1.09-1.84-2.67-3.36-4.55-4.38l-0.3-0.17l0.6-1.11L223.01,123.04L223.01,123.04z M224.66,145.04
				c-1.14,0.87-2.41,1.55-3.76,2.01c-1.35,0.46-2.75,0.69-4.17,0.69c-1.1,0-2.2-0.14-3.26-0.41c-1.06-0.27-2.09-0.68-3.05-1.21
				l-0.3-0.17l0.61-1.11l0.3,0.17c0.87,0.48,1.8,0.84,2.76,1.09c0.96,0.25,1.96,0.37,2.95,0.37c1.28,0,2.55-0.21,3.77-0.62
				c1.22-0.42,2.37-1.03,3.4-1.82l0.28-0.21l0.77,1L224.66,145.04L224.66,145.04z M206.89,143.32c-1.06-1.19-1.9-2.57-2.46-4.06
				c-0.57-1.49-0.85-3.07-0.85-4.67c0-1.27,0.18-2.54,0.55-3.76c0.36-1.22,0.9-2.38,1.6-3.44l0.19-0.29l1.06,0.69l-0.19,0.29
				c-0.63,0.96-1.12,2.01-1.45,3.11c-0.33,1.1-0.49,2.25-0.49,3.4c0,1.44,0.26,2.87,0.77,4.22c0.51,1.35,1.27,2.59,2.23,3.67
				l0.23,0.26l-0.94,0.84L206.89,143.32z"/>
		</g>
		<g>
			<g>
				
					<linearGradient id="SVGID_00000167389460115318372160000008589049626352837285_" gradientUnits="userSpaceOnUse" x1="194.6249" y1="56.6844" x2="198.1046" y2="68.2953">
					<stop  offset="0" style="stop-color:#E494BF"/>
					<stop  offset="1" style="stop-color:#736BAF"/>
				</linearGradient>
				<path style="fill-rule:evenodd;clip-rule:evenodd;fill:url(#SVGID_00000167389460115318372160000008589049626352837285_);" d="
					M196.42,55.04c4.22,0,7.65,3.42,7.65,7.65c0,4.22-3.42,7.65-7.65,7.65s-7.65-3.42-7.65-7.65
					C188.78,58.47,192.2,55.04,196.42,55.04z"/>
				<path class="st6" d="M196.42,56.47c1.72,0,3.27,0.7,4.4,1.82c1.13,1.13,1.82,2.68,1.82,4.4c0,1.72-0.7,3.27-1.82,4.4
					c-1.13,1.13-2.68,1.82-4.4,1.82s-3.27-0.7-4.4-1.82c-1.13-1.13-1.82-2.68-1.82-4.4c0-1.72,0.7-3.27,1.82-4.4
					C193.15,57.17,194.71,56.47,196.42,56.47L196.42,56.47z M200.08,59.04c-0.93-0.93-2.23-1.51-3.65-1.51s-2.72,0.58-3.65,1.51
					c-0.93,0.93-1.51,2.23-1.51,3.65c0,1.43,0.58,2.72,1.51,3.65c0.93,0.93,2.23,1.51,3.65,1.51s2.72-0.58,3.65-1.51
					c0.93-0.93,1.51-2.23,1.51-3.65C201.59,61.26,201.01,59.97,200.08,59.04z"/>
				<path class="st6" d="M198.81,63.83c0,0.7-0.2,1.26-0.61,1.69c-0.38,0.39-0.85,0.6-1.41,0.63v0.44h-0.67v-0.44
					c-0.61,0-1.1-0.17-1.47-0.5c-0.4-0.37-0.6-0.89-0.6-1.55h1.46c0,0.35,0.16,0.6,0.48,0.73c0.21,0.08,0.68,0.13,0.88,0.02
					c0.31-0.16,0.46-0.42,0.46-0.78c0-0.35-0.13-0.58-0.4-0.7c-0.24-0.1-0.6-0.13-0.87-0.19c-1.25-0.28-1.88-0.96-1.88-2.03
					c0-0.52,0.19-0.97,0.56-1.35c0.37-0.38,0.83-0.58,1.38-0.62l0.01-0.4h0.67l-0.01,0.4c0.53,0.02,0.96,0.2,1.31,0.53
					c0.34,0.33,0.52,0.75,0.52,1.27h-1.43c-0.02-0.19-0.11-0.35-0.27-0.47c-0.2-0.15-0.73-0.11-0.94,0.02
					c-0.23,0.14-0.35,0.36-0.35,0.65c0,0.21,0.06,0.36,0.19,0.45c0.18,0.13,0.92,0.26,1.2,0.34c0.45,0.12,0.83,0.33,1.15,0.6
					C198.59,62.93,198.81,63.35,198.81,63.83z"/>
			</g>
			<path class="st9" d="M189.1,55.79c0.26-0.27,0.53-0.54,0.82-0.78c0.29-0.24,0.59-0.47,0.9-0.68l0.22-0.15l0.54,0.8l-0.22,0.15
				c-0.28,0.19-0.55,0.4-0.81,0.62c-0.26,0.22-0.51,0.46-0.74,0.7l-0.18,0.19l-0.7-0.66L189.1,55.79L189.1,55.79z M191.69,53.81
				l-0.23,0.13l0.45,0.85l0.23-0.12c0.22-0.12,0.45-0.23,0.68-0.33c0.23-0.1,0.46-0.19,0.7-0.27l0.25-0.08l-0.31-0.92l-0.25,0.08
				c-0.26,0.09-0.52,0.19-0.78,0.3C192.19,53.55,191.94,53.68,191.69,53.81L191.69,53.81z M194.03,52.92c0.2-0.05,0.4-0.09,0.6-0.13
				c0.2-0.04,0.41-0.07,0.61-0.09l0.26-0.03l0.11,0.96l-0.26,0.03c-0.18,0.02-0.37,0.05-0.55,0.08c-0.18,0.03-0.36,0.07-0.55,0.12
				L194,53.92l-0.23-0.94L194.03,52.92L194.03,52.92z M195.95,52.64c0.08,0,0.16-0.01,0.24-0.01l0.24,0l0.23,0l0.49,0.02l-0.04,0.97
				l-0.47-0.02l-0.21,0l-0.22,0c-0.07,0-0.15,0-0.22,0.01l-0.27,0.01l-0.04-0.97L195.95,52.64L195.95,52.64z M197.56,52.69
				c0.12,0.01,0.23,0.03,0.35,0.05c0.12,0.02,0.23,0.04,0.35,0.06l0.26,0.05l-0.17,0.95l-0.26-0.05c-0.1-0.02-0.21-0.04-0.32-0.05
				c-0.1-0.02-0.21-0.03-0.31-0.04l-0.26-0.03l0.11-0.96L197.56,52.69L197.56,52.69z M201.23,53.85c1.59,0.87,2.92,2.15,3.85,3.71
				c0.93,1.56,1.41,3.32,1.41,5.13c0,0.91-0.12,1.82-0.36,2.7c-0.23,0.85-0.58,1.68-1.05,2.43l-0.14,0.23l-0.82-0.51l0.14-0.23
				c0.42-0.68,0.73-1.41,0.94-2.18c0.22-0.8,0.32-1.62,0.32-2.45c0-1.64-0.43-3.23-1.27-4.64c-0.84-1.41-2.04-2.57-3.48-3.35
				l-0.23-0.13l0.46-0.85L201.23,53.85L201.23,53.85z M202.5,70.69c-0.87,0.66-1.84,1.19-2.88,1.54c-1.03,0.35-2.11,0.53-3.19,0.53
				c-0.84,0-1.68-0.1-2.5-0.31c-0.81-0.21-1.6-0.52-2.34-0.92l-0.23-0.13l0.47-0.85l0.23,0.13c0.67,0.37,1.38,0.65,2.11,0.83
				c0.74,0.19,1.5,0.28,2.26,0.28c0.98,0,1.95-0.16,2.88-0.48c0.94-0.32,1.82-0.79,2.6-1.39l0.21-0.16l0.59,0.77L202.5,70.69
				L202.5,70.69z M188.9,69.37c-0.81-0.91-1.45-1.97-1.88-3.11c-0.43-1.14-0.65-2.35-0.65-3.57c0-0.97,0.14-1.94,0.42-2.88
				c0.28-0.93,0.69-1.82,1.22-2.63l0.15-0.22l0.81,0.53l-0.15,0.22c-0.48,0.74-0.86,1.54-1.11,2.38c-0.25,0.84-0.38,1.72-0.38,2.6
				c0,1.1,0.2,2.2,0.59,3.23c0.39,1.03,0.97,1.98,1.7,2.81l0.18,0.2l-0.72,0.64L188.9,69.37z"/>
		</g>
		<g>
			
				<linearGradient id="SVGID_00000137826453078175052280000003486371490055276706_" gradientUnits="userSpaceOnUse" x1="68.6811" y1="102.2945" x2="69.125" y2="70.5764">
				<stop  offset="0" style="stop-color:#4384C5"/>
				<stop  offset="1" style="stop-color:#43BCD0"/>
			</linearGradient>
			<path style="fill-rule:evenodd;clip-rule:evenodd;fill:url(#SVGID_00000137826453078175052280000003486371490055276706_);" d="
				M47.59,67.56h36.05c2.56,0,4.66,2.21,4.66,4.91v27.35l6.48,7.3l-6.99-1.34c-0.78,1.58-2.35,2.67-4.15,2.67H47.59
				c-2.56,0-4.66-2.21-4.66-4.91V72.46C42.93,69.76,45.03,67.56,47.59,67.56z"/>
			<g>
				<path class="st1" d="M54.88,71.52h14.76l9.38,9.38v20.92c0,1.46-1.2,2.66-2.66,2.66H54.88c-1.46,0-2.66-1.2-2.66-2.66V74.18
					C52.22,72.72,53.42,71.52,54.88,71.52z"/>
				<path class="st20" d="M79.01,83.41h-8.58c-1.68,0-3.06-1.38-3.06-3.06v-8.81l2.27-0.01l9.35,9.55L79.01,83.41z"/>
				<path class="st1" d="M79.01,81.84h-7.44c-1.46,0-2.66-1.2-2.66-2.66v-7.65v-0.01h0.72l9.38,9.38V81.84z"/>
				<g>
					<path class="st20" d="M55.9,79.79h10.41c0.43,0,0.79,0.35,0.79,0.79v1.33c0,0.43-0.35,0.79-0.79,0.79H55.9
						c-0.43,0-0.79-0.35-0.79-0.79v-1.33C55.11,80.14,55.47,79.79,55.9,79.79z"/>
					<path class="st20" d="M55.66,84.94h19.91c0.3,0,0.55,0.25,0.55,0.55v0.93c0,0.3-0.25,0.55-0.55,0.55H55.66
						c-0.3,0-0.55-0.25-0.55-0.55v-0.93C55.11,85.18,55.36,84.94,55.66,84.94z"/>
					<path class="st20" d="M55.66,89.44h19.91c0.3,0,0.55,0.25,0.55,0.55v0.93c0,0.3-0.25,0.55-0.55,0.55H55.66
						c-0.3,0-0.55-0.25-0.55-0.55v-0.93C55.11,89.69,55.36,89.44,55.66,89.44z"/>
					<path class="st20" d="M55.66,93.95h19.91c0.3,0,0.55,0.25,0.55,0.55v0.93c0,0.3-0.25,0.55-0.55,0.55H55.66
						c-0.3,0-0.55-0.25-0.55-0.55V94.5C55.11,94.2,55.36,93.95,55.66,93.95z"/>
					<path class="st20" d="M55.66,98.46h19.91c0.3,0,0.55,0.25,0.55,0.55v0.93c0,0.3-0.25,0.55-0.55,0.55H55.66
						c-0.3,0-0.55-0.25-0.55-0.55v-0.93C55.11,98.71,55.36,98.46,55.66,98.46z"/>
				</g>
			</g>
		</g>
		<g>
			<path class="st20" d="M23.65,131.31c7.57,0,13.71,6.14,13.71,13.71c0,7.57-6.14,13.71-13.71,13.71
				c-7.57,0-13.71-6.14-13.71-13.71C9.94,137.45,16.08,131.31,23.65,131.31L23.65,131.31z M10.52,132.64l-0.33,0.35l1.26,1.19
				l0.33-0.35c0.42-0.45,0.86-0.87,1.33-1.26c0.47-0.39,0.95-0.76,1.46-1.1l0.4-0.27L14,129.76l-0.4,0.27
				c-0.56,0.38-1.1,0.78-1.62,1.22C11.47,131.68,10.98,132.15,10.52,132.64L10.52,132.64z M15.17,129.09
				c0.44-0.23,0.89-0.45,1.34-0.65c0.46-0.2,0.92-0.37,1.39-0.53l0.45-0.15l0.55,1.64l-0.45,0.15c-0.43,0.14-0.85,0.3-1.26,0.48
				c-0.41,0.18-0.82,0.37-1.22,0.58l-0.42,0.22l-0.81-1.53L15.17,129.09L15.17,129.09z M19.35,127.49l-0.46,0.11l0.41,1.68
				l0.46-0.11c0.32-0.08,0.65-0.15,0.98-0.21c0.33-0.06,0.66-0.11,0.99-0.15l0.47-0.06l-0.2-1.72l-0.48,0.06
				c-0.37,0.04-0.73,0.1-1.09,0.16C20.07,127.32,19.71,127.4,19.35,127.49L19.35,127.49z M22.79,126.99
				c0.14-0.01,0.29-0.01,0.43-0.01l0.43-0.01l0.41,0.01l0.88,0.03l-0.07,1.73l-0.84-0.03l-0.38,0l-0.39,0
				c-0.13,0-0.26,0.01-0.39,0.01l-0.48,0.02l-0.07-1.73L22.79,126.99L22.79,126.99z M25.69,127.08c0.21,0.02,0.42,0.05,0.63,0.08
				c0.21,0.03,0.42,0.07,0.62,0.1l0.47,0.09l-0.31,1.7l-0.47-0.09c-0.19-0.03-0.38-0.07-0.56-0.09c-0.19-0.03-0.38-0.05-0.56-0.07
				l-0.47-0.05l0.19-1.72L25.69,127.08L25.69,127.08z M32.28,129.16l-0.42-0.23l-0.83,1.52l0.42,0.23c2.58,1.41,4.74,3.49,6.24,6.01
				c1.5,2.52,2.28,5.39,2.28,8.32c0,1.48-0.19,2.96-0.58,4.38c-0.38,1.37-0.94,2.69-1.68,3.91l-0.25,0.41l1.48,0.91l0.25-0.41
				c0.83-1.35,1.46-2.83,1.88-4.36c0.43-1.58,0.64-3.21,0.64-4.84c0-3.25-0.86-6.41-2.52-9.21
				C37.52,133.02,35.13,130.72,32.28,129.16L32.28,129.16z M34.54,159.36l0.38-0.29l-1.05-1.38l-0.38,0.29
				c-1.41,1.08-2.99,1.92-4.67,2.5c-1.67,0.57-3.41,0.85-5.17,0.85c-1.37,0-2.73-0.17-4.05-0.51c-1.32-0.34-2.59-0.84-3.78-1.49
				l-0.42-0.23l-0.83,1.52l0.42,0.23c1.32,0.73,2.73,1.28,4.19,1.66c1.46,0.37,2.97,0.56,4.48,0.56c1.95,0,3.88-0.32,5.73-0.95
				C31.24,161.49,32.98,160.55,34.54,159.36L34.54,159.36z M10.16,157l0.32,0.36l1.3-1.15l-0.32-0.36
				c-1.31-1.48-2.35-3.19-3.06-5.04c-0.7-1.85-1.06-3.81-1.06-5.79c0-1.58,0.23-3.15,0.68-4.67c0.45-1.51,1.12-2.95,1.98-4.27
				l0.26-0.4l-1.45-0.95l-0.26,0.4c-0.96,1.46-1.7,3.05-2.2,4.72c-0.5,1.68-0.75,3.41-0.75,5.16c0,2.19,0.39,4.36,1.17,6.41
				C7.55,153.47,8.7,155.36,10.16,157L10.16,157z M23.65,133.86c-3.08,0-5.87,1.25-7.89,3.27c-2.02,2.02-3.27,4.81-3.27,7.89
				c0,3.08,1.25,5.87,3.27,7.89c2.02,2.02,4.81,3.27,7.89,3.27c3.08,0,5.87-1.25,7.89-3.27c2.02-2.02,3.27-4.81,3.27-7.89
				c0-3.08-1.25-5.87-3.27-7.89C29.52,135.11,26.73,133.86,23.65,133.86L23.65,133.86z M30.2,138.47c-1.68-1.68-3.99-2.71-6.55-2.71
				c-2.56,0-4.87,1.04-6.55,2.71c-1.68,1.68-2.71,3.99-2.71,6.55c0,2.56,1.04,4.87,2.71,6.55c1.68,1.68,3.99,2.71,6.55,2.71
				c2.56,0,4.87-1.04,6.55-2.71c1.68-1.68,2.71-3.99,2.71-6.55C32.92,142.46,31.88,140.15,30.2,138.47z"/>
			<g>
				<g>
					
						<linearGradient id="SVGID_00000078036000501844343280000006176001130874570687_" gradientUnits="userSpaceOnUse" x1="21.9341" y1="139.1934" x2="25.4137" y2="150.8041">
						<stop  offset="0" style="stop-color:#E494BF"/>
						<stop  offset="1" style="stop-color:#736BAF"/>
					</linearGradient>
					<path style="fill-rule:evenodd;clip-rule:evenodd;fill:url(#SVGID_00000078036000501844343280000006176001130874570687_);" d="
						M23.73,137.55c4.22,0,7.65,3.42,7.65,7.65c0,4.22-3.42,7.65-7.65,7.65c-4.22,0-7.65-3.42-7.65-7.65
						C16.09,140.98,19.51,137.55,23.73,137.55z"/>
					<path class="st6" d="M23.73,138.98c1.72,0,3.27,0.7,4.4,1.82c1.13,1.13,1.82,2.68,1.82,4.4c0,1.72-0.7,3.27-1.82,4.4
						c-1.13,1.13-2.68,1.82-4.4,1.82c-1.72,0-3.27-0.7-4.4-1.82c-1.13-1.13-1.82-2.68-1.82-4.4c0-1.72,0.7-3.27,1.82-4.4
						C20.46,139.67,22.02,138.98,23.73,138.98L23.73,138.98z M27.39,141.55c-0.93-0.93-2.23-1.51-3.65-1.51
						c-1.43,0-2.72,0.58-3.65,1.51c-0.93,0.93-1.51,2.23-1.51,3.65c0,1.43,0.58,2.72,1.51,3.65c0.93,0.93,2.23,1.51,3.65,1.51
						c1.43,0,2.72-0.58,3.65-1.51c0.93-0.93,1.51-2.23,1.51-3.65C28.9,143.77,28.32,142.48,27.39,141.55z"/>
					<path class="st6" d="M26.12,146.34c0,0.7-0.2,1.26-0.61,1.69c-0.38,0.39-0.85,0.6-1.41,0.63v0.44h-0.67v-0.44
						c-0.61,0-1.1-0.17-1.47-0.5c-0.4-0.37-0.6-0.89-0.6-1.55h1.46c0,0.35,0.16,0.6,0.48,0.73c0.21,0.08,0.68,0.13,0.88,0.02
						c0.31-0.16,0.46-0.42,0.46-0.78c0-0.35-0.13-0.58-0.4-0.7c-0.24-0.1-0.6-0.13-0.87-0.19c-1.25-0.28-1.88-0.96-1.88-2.03
						c0-0.52,0.19-0.97,0.56-1.35c0.37-0.38,0.83-0.58,1.38-0.62l0.01-0.4h0.67l-0.01,0.4c0.53,0.02,0.96,0.2,1.31,0.53
						c0.34,0.33,0.52,0.75,0.52,1.27h-1.43c-0.02-0.19-0.11-0.35-0.27-0.47c-0.2-0.15-0.73-0.11-0.94,0.02
						c-0.23,0.14-0.35,0.36-0.35,0.65c0,0.21,0.06,0.36,0.19,0.45c0.18,0.13,0.92,0.26,1.2,0.34c0.45,0.12,0.83,0.33,1.15,0.6
						C25.9,145.44,26.12,145.86,26.12,146.34z"/>
				</g>
				<path class="st9" d="M16.41,138.3c0.26-0.27,0.53-0.54,0.82-0.78c0.29-0.24,0.59-0.47,0.9-0.68l0.22-0.15l0.54,0.8l-0.22,0.15
					c-0.28,0.19-0.55,0.4-0.81,0.62c-0.26,0.22-0.51,0.46-0.74,0.7l-0.18,0.19l-0.7-0.66L16.41,138.3L16.41,138.3z M19,136.31
					l-0.23,0.13l0.45,0.85l0.23-0.13c0.22-0.12,0.45-0.23,0.68-0.32c0.23-0.1,0.46-0.19,0.7-0.27l0.25-0.08l-0.31-0.92l-0.25,0.08
					c-0.26,0.09-0.52,0.19-0.78,0.3C19.5,136.06,19.25,136.18,19,136.31L19,136.31z M21.33,135.42c0.2-0.05,0.4-0.09,0.6-0.13
					c0.2-0.04,0.41-0.07,0.61-0.09l0.26-0.03l0.11,0.96l-0.26,0.03c-0.18,0.02-0.37,0.05-0.55,0.08c-0.18,0.03-0.36,0.07-0.55,0.12
					l-0.26,0.06l-0.23-0.94L21.33,135.42L21.33,135.42z M23.25,135.15c0.08,0,0.16-0.01,0.24-0.01l0.24,0l0.23,0l0.49,0.02
					l-0.04,0.97l-0.47-0.02l-0.21,0l-0.22,0c-0.07,0-0.15,0-0.22,0.01l-0.27,0.01l-0.04-0.97L23.25,135.15L23.25,135.15z
					 M24.87,135.2c0.12,0.01,0.23,0.03,0.35,0.05c0.12,0.02,0.23,0.04,0.35,0.06l0.26,0.05l-0.17,0.95l-0.26-0.05
					c-0.1-0.02-0.21-0.04-0.31-0.05c-0.1-0.02-0.21-0.03-0.32-0.04l-0.26-0.03l0.11-0.96L24.87,135.2L24.87,135.2z M28.54,136.36
					c1.59,0.87,2.92,2.15,3.85,3.71c0.93,1.56,1.41,3.32,1.41,5.13c0,0.91-0.12,1.82-0.36,2.7c-0.23,0.85-0.58,1.68-1.05,2.43
					l-0.14,0.23l-0.82-0.51l0.14-0.23c0.42-0.68,0.73-1.41,0.94-2.18c0.22-0.8,0.32-1.62,0.32-2.45c0-1.64-0.43-3.23-1.27-4.64
					c-0.84-1.41-2.04-2.57-3.48-3.35l-0.23-0.13l0.46-0.85L28.54,136.36L28.54,136.36z M29.81,153.2c-0.87,0.66-1.84,1.19-2.88,1.54
					c-1.03,0.35-2.11,0.53-3.19,0.53c-0.84,0-1.68-0.1-2.5-0.31c-0.81-0.21-1.6-0.52-2.34-0.92l-0.23-0.13l0.47-0.85l0.23,0.13
					c0.67,0.37,1.38,0.65,2.11,0.83c0.74,0.19,1.5,0.28,2.26,0.28c0.98,0,1.95-0.16,2.88-0.48c0.94-0.32,1.82-0.79,2.6-1.39
					l0.21-0.16l0.59,0.77L29.81,153.2L29.81,153.2z M16.21,151.88c-0.81-0.91-1.45-1.97-1.88-3.11c-0.43-1.14-0.65-2.35-0.65-3.57
					c0-0.97,0.14-1.94,0.42-2.88c0.28-0.93,0.69-1.82,1.22-2.63l0.15-0.22l0.81,0.53l-0.15,0.22c-0.48,0.74-0.86,1.54-1.11,2.38
					c-0.25,0.84-0.38,1.72-0.38,2.6c0,1.1,0.2,2.2,0.59,3.23c0.39,1.03,0.97,1.98,1.7,2.81l0.18,0.2l-0.72,0.64L16.21,151.88z"/>
			</g>
		</g>
		<path class="st20" d="M168.13,48.64c3.54,0,6.41,2.87,6.41,6.41c0,3.54-2.87,6.41-6.41,6.41c-3.54,0-6.41-2.87-6.41-6.41
			C161.71,51.52,164.58,48.64,168.13,48.64z"/>
		<g>
			<path class="st22" d="M45.43,47.46c0.66-2.39,2.45-3.6,4.75-3.29l2.74,9.96L45.43,47.46z"/>
			<path class="st23" d="M220.15,32.92l-1.43,8.09l7.12-4.17C224.19,35.28,222.22,33.92,220.15,32.92z"/>
			<path class="st22" d="M30.13,178.95l3.05,4.91l1.9-8.27C33.45,175.98,31.63,177.21,30.13,178.95z"/>
			<path class="st9" d="M274.3,199.16l-7.93-2.16l3.5,7.47C271.59,202.96,273.13,201.12,274.3,199.16z"/>
		</g>
		<g>
			
				<linearGradient id="SVGID_00000142854228203207637380000011104686386923492269_" gradientUnits="userSpaceOnUse" x1="143.5965" y1="157.3743" x2="161.3208" y2="210.5546">
				<stop  offset="0" style="stop-color:#E494BF"/>
				<stop  offset="1" style="stop-color:#736BAF"/>
			</linearGradient>
			<path style="fill-rule:evenodd;clip-rule:evenodd;fill:url(#SVGID_00000142854228203207637380000011104686386923492269_);" d="
				M154.63,131.61c30.26,0,55.26,18.87,59.12,43.33h3.71c1.56,0,2.84,1.28,2.84,2.84v6.11c0,1.56-1.28,2.84-2.84,2.84h-3.53
				c-1.56,11.46-8.41,19.23-18.59,27.2c-0.02,0.1-0.03,0.21-0.06,0.31l-3.91,12.61c-1.2,3.88-2.33,7.61-5.17,7.61h-15.72
				c-2.84,0-1.13-8.08-5.17-7.61l-0.94,0.11c-2.52,0.27-7.14,0.41-9.74,0.41c-2.6,0-7.23-0.14-9.74-0.41l-0.94-0.11
				c-4.03-0.47-2.33,7.61-5.17,7.61h-15.72c-2.84,0-3.97-3.73-5.17-7.61l-3.91-12.61c-0.03-0.1-0.05-0.21-0.06-0.31
				c-5.96-4.66-10.78-6.22-14.06-12.58l-8.79-3.02c-2.84-0.97-5.45-2.45-5.45-5.45v-18.75c0-3,2.62-4.48,5.45-5.45l6.75-2.32
				C105.5,146.2,128.03,131.61,154.63,131.61z"/>
			<path class="st25" d="M176.04,152.01c-1.3-0.56-1.9-2.07-1.35-3.37c0.56-1.3,2.07-1.9,3.37-1.35c3.64,1.55,8.59,4.66,13.08,8.38
				c3.84,3.19,7.39,6.87,9.6,10.5c0.74,1.21,0.36,2.79-0.84,3.53c-1.21,0.74-2.79,0.36-3.53-0.84c-1.9-3.12-5.05-6.36-8.5-9.22
				C183.74,156.21,179.27,153.38,176.04,152.01z"/>
			<path class="st26" d="M119.01,125.01c13.76,1.36,18.32,12.05,19.96,23.37c0.91,3.3-5.04,8.09-8.61,6.34
				C123.91,151.02,120.1,130.52,119.01,125.01z"/>
			<path class="st27" d="M108.43,160.5c1.32,0,2.4,2.15,2.4,4.8c0,2.65-1.07,4.8-2.4,4.8c-1.32,0-2.4-2.15-2.4-4.8
				C106.03,162.65,107.11,160.5,108.43,160.5z"/>
			<path class="st28" d="M118.82,142.9l0.11-17.88c8.65,8.16,10.84,16.49,11.34,29.88C126.71,150.81,122.71,146.66,118.82,142.9z"/>
			
				<linearGradient id="SVGID_00000088117652581582826960000004240707367285076669_" gradientUnits="userSpaceOnUse" x1="149.7518" y1="161.7631" x2="157.8151" y2="221.3828">
				<stop  offset="0" style="stop-color:#E494BF"/>
				<stop  offset="1" style="stop-color:#736BAF"/>
			</linearGradient>
			
				<path style="opacity:0.5;fill-rule:evenodd;clip-rule:evenodd;fill:url(#SVGID_00000088117652581582826960000004240707367285076669_);" d="
				M194.86,144.68c-2.22,3.07-4.7,6.04-7.12,8.84c1.42,6.94,2,14.24,2.98,21.23c1.47,10.45,2.93,20.69,4.61,30.96
				c4.85-4.6,10.86-11.17,15.32-19c2.67-4.69,1.62-4.55,6.63-4.55c0.62,0,2.3-0.57,3.03-4.38v6.11c0,1.56-1.28,2.84-2.84,2.84h-3.53
				c-1.52,11.19-8.09,18.86-17.88,26.64l-0.12,0.1l-0.01,0.01l-0.02,0.02l-0.21,0.16l-0.36,0.28c-0.02,0.1-0.03,0.21-0.06,0.31
				l-3.91,12.61c-0.11,0.36-0.22,0.73-0.34,1.08l-0.06,0.18c-0.08,0.24-0.15,0.47-0.23,0.71l-0.12,0.35
				c-0.06,0.17-0.12,0.34-0.18,0.51c-0.1,0.28-0.2,0.55-0.31,0.82l-0.06,0.16l-0.06,0.16l-0.07,0.15l-0.07,0.15
				c-0.07,0.15-0.13,0.3-0.2,0.44l-0.07,0.14l-0.07,0.14l-0.07,0.14l-0.07,0.13c-0.05,0.09-0.1,0.18-0.15,0.26l-0.08,0.13
				l-0.08,0.12l-0.08,0.12l-0.08,0.12l-0.08,0.11l-0.08,0.11c-0.03,0.04-0.06,0.07-0.09,0.11l-0.09,0.1l-0.09,0.1l-0.09,0.09
				c-0.03,0.03-0.06,0.06-0.09,0.09c-0.03,0.03-0.06,0.06-0.09,0.09c-0.03,0.03-0.06,0.06-0.1,0.08c-0.03,0.03-0.06,0.05-0.1,0.08
				c-0.03,0.03-0.07,0.05-0.1,0.07c-0.03,0.02-0.07,0.05-0.1,0.07c-0.03,0.02-0.07,0.05-0.1,0.07c-0.03,0.02-0.07,0.04-0.1,0.06
				c-0.04,0.02-0.07,0.04-0.11,0.06c-0.04,0.02-0.07,0.04-0.11,0.05c-0.04,0.02-0.07,0.03-0.11,0.05c-0.04,0.02-0.08,0.03-0.11,0.04
				c-0.04,0.01-0.08,0.03-0.12,0.04c-0.04,0.01-0.08,0.02-0.12,0.03c-0.04,0.01-0.08,0.02-0.12,0.03c-0.04,0.01-0.08,0.02-0.12,0.02
				c-0.04,0.01-0.08,0.01-0.12,0.02c-0.04,0.01-0.08,0.01-0.13,0.01c-0.04,0-0.09,0.01-0.13,0.01c-0.04,0-0.09,0-0.13,0h-0.65
				h-15.07c-2.31,0-1.62-5.32-3.43-7.07v0l-0.02-0.02c-0.02-0.02-0.05-0.05-0.07-0.07l-0.03-0.03c-0.03-0.02-0.06-0.04-0.08-0.07
				l-0.03-0.02c-0.03-0.02-0.06-0.04-0.1-0.06l-0.02-0.01c-0.03-0.02-0.07-0.04-0.1-0.06l-0.03-0.01c-0.04-0.02-0.07-0.04-0.11-0.05
				l-0.02-0.01c-0.04-0.02-0.08-0.03-0.12-0.04l-0.02-0.01c-0.04-0.01-0.09-0.03-0.13-0.04l-0.01,0c-0.04-0.01-0.09-0.02-0.13-0.03
				l-0.02,0c-0.05-0.01-0.09-0.01-0.14-0.02l-0.01,0c-0.05,0-0.1-0.01-0.16-0.01l-0.01,0c-0.05,0-0.11,0-0.16,0l-0.02,0
				c-0.05,0-0.11,0.01-0.16,0.01l-0.01,0l-0.94,0.11c-0.51,0.06-1.12,0.11-1.77,0.15c-2.61,0.2-5.26,0.26-7.85,0.26h-0.12h-0.1
				c-3.49,0-7.11-0.11-10.58-0.52c-4.03-0.47-2.33,7.61-5.17,7.61h-15.72c-2.84,0-3.97-3.73-5.17-7.61l-3.91-12.61
				c-0.03-0.1-0.05-0.21-0.06-0.31c-5.96-4.66-10.78-6.22-14.06-12.58l-8.79-3.02c-2.84-0.97-5.45-2.45-5.45-5.45v-11.12
				c0,2.45,1.84,8.82,4.67,9.61c6.88,1.94,11.92,2.76,17.35,6.48c6.29,4.31,10.96,10.84,14.26,14.74c4.04,4.79,16.27,4,19.38,1.3
				c1.31-1.13,3.13-2.48,6.97-3.26c-2.61-18.22-4.64-35.44-6.09-54.79c-0.79-8.84,0.34-13.62,1.24-23.34
				c4.52-0.76,8.16-0.88,11.24-0.88C170.14,131.61,184.25,136.56,194.86,144.68L194.86,144.68z M178.66,215.77
				c-1.98-5.56-3.88-11.01-5.51-15.73c-1.39,0.09-2.78,0.14-4.18,0.14c-0.38,4.87-0.78,9.74-1.14,14.62
				C170.27,216.02,174.54,216.35,178.66,215.77z"/>
		</g>
		<g>
			<g>
				<path class="st30" d="M162.21,231.66c0.38,1.9,1.54,3.35,1.72,4.74c0.31,2.4-1.07,4.82-3.91,4.84l-18.59,0.16
					c0.98-6.35,10.92-2.83,14.26-9.87l4.33,0.24L162.21,231.66z"/>
				
					<linearGradient id="SVGID_00000009560528441102040960000010862593855036862371_" gradientUnits="userSpaceOnUse" x1="148.7916" y1="185.4848" x2="161.4544" y2="185.5719">
					<stop  offset="0" style="stop-color:#F7B69F"/>
					<stop  offset="1" style="stop-color:#F4A59A"/>
				</linearGradient>
				<path style="fill-rule:evenodd;clip-rule:evenodd;fill:url(#SVGID_00000009560528441102040960000010862593855036862371_);" d="
					M149.54,139.4c-1.08,5.18-1.98,6.56-1.41,12.97l7.16,80.02c0.05,0.59,1.52,1.57,3.09,1.72c1.85,0.17,3.85-0.62,3.89-1.93
					c0.42-13.87,2.07-30.79,2.8-41.76c0.74-11.15,2.85-22.7,4.57-34.22c0.9-6.04,0.52-11.22,1.79-18.69l-15.31-0.55L149.54,139.4z"
					/>
				
					<linearGradient id="SVGID_00000111878045159683118860000001792154631955405442_" gradientUnits="userSpaceOnUse" x1="171.159" y1="174.1738" x2="136.824" y2="200.4721">
					<stop  offset="0" style="stop-color:#F18879"/>
					<stop  offset="1" style="stop-color:#F4A59A"/>
				</linearGradient>
				<path style="fill-rule:evenodd;clip-rule:evenodd;fill:url(#SVGID_00000111878045159683118860000001792154631955405442_);" d="
					M149.54,139.4c-1.08,5.18-1.98,6.56-1.41,12.97l3.7,41.65c2.98,2.05,4.18,2.66,7.5,3.98c0.91,17.53,2.88,36.26,2.94,34.18
					c0.42-13.87,2.07-30.79,2.8-41.76c0.74-11.15,2.85-22.7,4.57-34.22c0.9-6.04,0.52-11.22,1.79-18.69l-15.31-0.55L149.54,139.4z"
					/>
			</g>
			<g>
				<path class="st30" d="M198.8,241.56c-1.92,1.94-2.57,2.75-5.02,2.82c-2,0.05-2.67-0.58-3.79-1.7c-1.25-1.24-1.64-2.02-1.61-3.12
					c0.05-2.1,0.96-4,1.1-6.64l4,0.3l1.74-0.93c0.76,1.23,2.37,3.51,3.5,5.51C199.27,238.78,199.06,240.53,198.8,241.56z"/>
				
					<linearGradient id="SVGID_00000119800897780889333850000002878957963004341421_" gradientUnits="userSpaceOnUse" x1="154.6985" y1="185.2154" x2="178.091" y2="185.5012">
					<stop  offset="0" style="stop-color:#F7B69F"/>
					<stop  offset="1" style="stop-color:#F4A59A"/>
				</linearGradient>
				<path style="fill-rule:evenodd;clip-rule:evenodd;fill:url(#SVGID_00000119800897780889333850000002878957963004341421_);" d="
					M177.29,139.65c1.51,3.2,4.31,5.83,5.98,13.75c0.35,1.66,0.57,3.05,0.74,4.35c0.97,7.72,1.37,15.07,2.62,22.85
					c2.76,17.15,5.63,34.95,8.69,51.78c0.48,2.65-5.1,2.47-5.64,1.17c-5.66-13.65-9.74-27.62-14.74-41.45
					c-6.92-19.14-15.67-37.51-21.66-55.69L177.29,139.65z"/>
				
					<linearGradient id="SVGID_00000024709826767651020280000003387325667090354063_" gradientUnits="userSpaceOnUse" x1="177.1538" y1="178.7021" x2="163.9239" y2="205.4077">
					<stop  offset="0" style="stop-color:#F18879"/>
					<stop  offset="1" style="stop-color:#F4A59A"/>
				</linearGradient>
				<path style="fill-rule:evenodd;clip-rule:evenodd;fill:url(#SVGID_00000024709826767651020280000003387325667090354063_);" d="
					M177.29,139.65c1.51,3.2,4.31,5.83,5.98,13.75c0.35,1.66,0.57,3.05,0.74,4.35c0.97,7.72,1.37,15.07,2.62,22.85
					c2.76,17.15,5.64,34.95,8.69,51.78c0.48,2.65-10.32-33.89-10.85-35.18c-4.48,0.35-5.85,0.45-7.84-0.32
					c-0.55-1.59-1.12-3.18-1.69-4.77c-6.92-19.14-15.67-37.51-21.66-55.69L177.29,139.65z"/>
			</g>
			<g>
				
					<linearGradient id="SVGID_00000150807975193546984270000000520590284755340733_" gradientUnits="userSpaceOnUse" x1="156.5694" y1="162.4736" x2="175.7251" y2="171.2626">
					<stop  offset="0" style="stop-color:#3F4896"/>
					<stop  offset="1" style="stop-color:#283583"/>
				</linearGradient>
				<path style="fill-rule:evenodd;clip-rule:evenodd;fill:url(#SVGID_00000150807975193546984270000000520590284755340733_);" d="
					M149.54,139.4c-1.08,5.18-1.89,6.55-1.41,12.97l2.98,39.91c4.84,2.72,26.08,5.22,37.65-1.59c-1.52-8.04-3.79-25.22-4.76-32.94
					c-0.16-1.3-0.39-2.7-0.74-4.35c-1.67-7.92-4.47-10.54-5.98-13.75l-6.06-0.82c0.07-0.43,0.14-0.87,0.21-1.32l-13.68-0.49
					l-4.48-0.61c0.16,0.48,0.31,0.95,0.47,1.43L149.54,139.4z"/>
				
					<linearGradient id="SVGID_00000052079164507406974870000001425407393101000340_" gradientUnits="userSpaceOnUse" x1="186.7789" y1="182.6928" x2="173.0793" y2="153.447">
					<stop  offset="0" style="stop-color:#4384C5"/>
					<stop  offset="1" style="stop-color:#43BCD0"/>
				</linearGradient>
				<path style="fill-rule:evenodd;clip-rule:evenodd;fill:url(#SVGID_00000052079164507406974870000001425407393101000340_);" d="
					M185.3,192.35c-1.25-7.1-2.53-14.88-3.81-22.67c-1.5-9.15-3.01-18.32-4.56-26.81l-2.48,0.44c1.51,8.28,3.03,17.54,4.55,26.77
					c1.29,7.85,2.58,15.68,3.89,23.09C183.72,192.93,184.52,192.66,185.3,192.35z"/>
			</g>
			<g>
				<g>
					
						<linearGradient id="SVGID_00000005958391784880463510000016311202209881820599_" gradientUnits="userSpaceOnUse" x1="111.459" y1="92.8765" x2="120.7309" y2="93.1928">
						<stop  offset="0" style="stop-color:#F7B69F"/>
						<stop  offset="1" style="stop-color:#F4A59A"/>
					</linearGradient>
					<path style="fill-rule:evenodd;clip-rule:evenodd;fill:url(#SVGID_00000005958391784880463510000016311202209881820599_);" d="
						M125.89,92.73c-0.15-1.99-0.76-2.11-3.34-3.77c-0.54-0.35-1.05-0.81-2.24-2.18c-0.83,0.68-0.21,1.41,0.36,2.42
						c0.28,0.49,0.56,1.16,0.68,1.68c-2.33-0.14-3.12-0.58-3.66-1.19c-2.72-3.04-3.21-3.6-6.79-3.59c1.68,2.17,2.93,3.57,3.81,5.85
						c0.54,1.4,0.42,1.29,1.4,1.73c1.31,0.6,2.43,1.23,3.67,1.83c2.75,1.35,2.68,2.03,4.47,4.56l3.41-1.95
						C126.43,95.59,126.1,95.56,125.89,92.73z"/>
					<path class="st38" d="M124.36,94.8c-1.31-3.11-2.42-3.3-6.3-4.42l-2.15,1.3l1.83-0.69C120.41,92.25,123,92.1,124.36,94.8z"/>
				</g>
				
					<linearGradient id="SVGID_00000121270262207435537160000013054478717307400332_" gradientUnits="userSpaceOnUse" x1="149.9081" y1="110.4698" x2="138.1949" y2="96.3747">
					<stop  offset="0" style="stop-color:#4384C5"/>
					<stop  offset="1" style="stop-color:#43BCD0"/>
				</linearGradient>
				<path style="fill-rule:evenodd;clip-rule:evenodd;fill:url(#SVGID_00000121270262207435537160000013054478717307400332_);" d="
					M160.13,95.6c-5.8,1.88-9.99,8.98-13.72,13.84c-4.66,6.91-6.34,2.73-9.86-1.42c-3.49-4.11-6.5-7.55-9.42-11.74
					c-1.27-0.05-3.34,0.77-4.37,2.8c3.54,6.19,10.69,23.96,18.68,24.23c4.13,0.14,9.94-2.92,13.79-7.92
					C161.75,106.89,163.29,104.2,160.13,95.6z"/>
				<path class="st40" d="M160.19,95.55c-6.11,1.87-7.14,8.81-10.03,15.83c-1.44,3.49-3.46,8.06-7.42,9.17
					c-4.31,1.21-8.4-2.96-11.55-5.94c3.06,4.72,6.56,8.56,10.24,8.69c4.13,0.14,9.94-2.92,13.79-7.92
					C161.75,106.89,163.36,104.15,160.19,95.55z"/>
			</g>
			<g>
				
					<linearGradient id="SVGID_00000056400748448970626530000013705726655324865938_" gradientUnits="userSpaceOnUse" x1="184.6633" y1="80.9786" x2="185.495" y2="105.5764">
					<stop  offset="0" style="stop-color:#5A2E68"/>
					<stop  offset="1" style="stop-color:#22183C"/>
				</linearGradient>
				<path style="fill-rule:evenodd;clip-rule:evenodd;fill:url(#SVGID_00000056400748448970626530000013705726655324865938_);" d="
					M171.47,70.61c5.56-2.36,8.4,0.07,10.58,4.03c2.28,4.16,2.53,6.28,4.08,7.83c2.63,2.63,6.06,2.1,13.07,2.56
					c12.36,0.82,13.01,12.45,9.45,20.76c-4.22,9.85-16.31,16.47-25.88,17.77c-11.84,1.61-15.42-4.02-15.73-10.85
					c-0.2-4.5,1.31-7.46,0.95-9.22c-1.47-7.15-7.88-4.98-8.32-13.04c-0.24-4.49,4-7.64,3.52-13.3
					C158.06,66.92,167.78,67.02,171.47,70.61z"/>
				<path class="st42" d="M209.15,104.54c-0.16,0.43-0.32,0.85-0.5,1.27c-4.22,9.85-16.31,16.47-25.88,17.77
					c-11.84,1.61-15.42-4.02-15.73-10.85c-0.2-4.5,1.31-7.46,0.95-9.22c-1.47-7.15-7.88-4.98-8.32-13.04
					c-0.24-4.49,4-7.64,3.52-13.3c-0.1-0.2-0.19-0.39-0.28-0.59c2.73,0.75,6.38,0.15,10.4-1.82c0.98,2.39,0.91,5.02,1.14,7.62
					c2.61-1.5,3.37,0.42,3.56,3.21c0.27,4.05,0.41,4.99,1.75,5.64c8.37,4.08,9.08,4.87,15.79,12.75
					C200.36,109.63,203.18,108.38,209.15,104.54z"/>
			</g>
			
				<linearGradient id="SVGID_00000039092538418722232880000018076744211506646445_" gradientUnits="userSpaceOnUse" x1="173.9015" y1="135.5283" x2="160.8005" y2="106.4441">
				<stop  offset="0" style="stop-color:#4384C5"/>
				<stop  offset="1" style="stop-color:#43BCD0"/>
			</linearGradient>
			<path style="fill-rule:evenodd;clip-rule:evenodd;fill:url(#SVGID_00000039092538418722232880000018076744211506646445_);" d="
				M180.35,112.53c-0.57,10.14-0.78,20.96-0.2,30.87c-11.03,2.36-20.68,2.63-31.34-1c0.54-10.57,2.07-24.44,4.07-35.4
				c0.89-4.9,3.15-10.24,7.05-11.38c2.79-0.81,5.87-1.15,8.99-1.03c6.84,0.27,13.55,2.3,18.44,8.25L180.35,112.53z"/>
			<g>
				<g>
					
						<linearGradient id="SVGID_00000137093644316980344950000005905928230408042680_" gradientUnits="userSpaceOnUse" x1="170.7595" y1="90.6498" x2="169.5341" y2="96.0382">
						<stop  offset="0" style="stop-color:#F18879"/>
						<stop  offset="1" style="stop-color:#F4A59A"/>
					</linearGradient>
					<path style="fill-rule:evenodd;clip-rule:evenodd;fill:url(#SVGID_00000137093644316980344950000005905928230408042680_);" d="
						M172.7,88.86c0,2.93,0.03,3.74,0.77,6.58c-0.77,2.9-5.92,4.62-7.18,0.03c0.43-1.38,0.41-2.34,0.37-3.47l2.37-2.14L172.7,88.86z
						"/>
					<g>
						
							<linearGradient id="SVGID_00000000218052383521910390000010959610071621301688_" gradientUnits="userSpaceOnUse" x1="162.5049" y1="84.5818" x2="170.6253" y2="84.8038">
							<stop  offset="0" style="stop-color:#F7B69F"/>
							<stop  offset="1" style="stop-color:#F4A59A"/>
						</linearGradient>
						
							<path style="fill-rule:evenodd;clip-rule:evenodd;fill:url(#SVGID_00000000218052383521910390000010959610071621301688_);" d="
							M162.23,78.15c-0.34,4.65-0.99,8.46,0.68,12.02c1.43,3.05,3.62,2.74,5.87,1.63c2.3-1.14,3.51-1.86,5.07-3.82
							c0.57-0.31,1.21-0.35,1.84-1c0.94-0.97,1.55-2.7,0.78-3.82c-0.34-0.5-1.17-0.14-1.72,0.81c-0.69,1.18-1.09,0.03-1.1-0.82
							c-0.04-2.33-0.68-3.78-1.14-6.2C169.43,78.52,165.33,80.55,162.23,78.15z"/>
						<path class="st46" d="M162.23,78.15c-0.05,0.73-0.11,1.44-0.17,2.13c3.17,1.17,6.52,0.49,9.98-2.13
							c0.75,2.13,0.35,3.82,0.8,5.34c0.37,1.24,0.91,1.79,1.65,1.53c1.05-0.38,0.9-1.09,2.21-1.45c-0.05-0.15-0.13-0.29-0.22-0.42
							c-0.34-0.5-1.17-0.14-1.72,0.81c-0.69,1.18-1.09,0.03-1.1-0.82c-0.04-2.33-0.68-3.78-1.14-6.2
							C169.43,78.52,165.33,80.55,162.23,78.15z"/>
					</g>
				</g>
				<g>
					<path class="st47" d="M164.27,79.25c3.55,0.58,9.1-1.67,9.23-5.13c0.12-3.18-3.52-5.32-6.62-5.88
						C158.37,66.69,156.5,77.98,164.27,79.25z"/>
					<path class="st42" d="M164.27,79.25c3.26,0.53,8.22-1.33,9.1-4.32c-0.02-0.06-0.05-0.12-0.07-0.18
						c-6.18,3.03-11.46,2.82-13.93-0.54C159.52,76.52,161.08,78.73,164.27,79.25z"/>
				</g>
			</g>
			<g>
				<g>
					<g>
						
							<linearGradient id="SVGID_00000127044095093612637170000014363972721801970874_" gradientUnits="userSpaceOnUse" x1="173.3239" y1="150.5836" x2="178.9962" y2="150.7435">
							<stop  offset="0" style="stop-color:#F7B69F"/>
							<stop  offset="1" style="stop-color:#F4A59A"/>
						</linearGradient>
						
							<path style="fill-rule:evenodd;clip-rule:evenodd;fill:url(#SVGID_00000127044095093612637170000014363972721801970874_);" d="
							M183.41,147.71c-1.02,2.87-1.09,5.74-2.53,8.44c-1.03-1.8-2.24-4.2-3.41-5.91l-2.33,1.26c-2.35,1.38-3.52,0.98-0.69-1.62
							c1.73-1.59,4.13-2.88,6-4.45L183.41,147.71z"/>
						<path class="st38" d="M183.2,148.45c-0.49,1.38-0.84,3.67-1.19,4.72c-1.3-1.75-2.3-5.79-2.4-7.04
							c0.25-0.21,0.92-0.75,1.17-0.97L183.2,148.45z"/>
					</g>
					<path class="st49" d="M177.49,150.25c1.24,2.05,3.27,4.57,4.96,5.75l0.26,3.11c-2.68-1.58-5.74-5.12-6.96-7.89L177.49,150.25z"
						/>
				</g>
				<g>
					
						<linearGradient id="SVGID_00000176761466276392900840000000964694136809266820_" gradientUnits="userSpaceOnUse" x1="188.4333" y1="131.6258" x2="168.8224" y2="102.6702">
						<stop  offset="0" style="stop-color:#4384C5"/>
						<stop  offset="1" style="stop-color:#43BCD0"/>
					</linearGradient>
					<path style="fill-rule:evenodd;clip-rule:evenodd;fill:url(#SVGID_00000176761466276392900840000000964694136809266820_);" d="
						M182.88,151.41c-1.09-1.54-2.2-4.03-2.44-6.14c3.6-6.23,8.18-13.52,7.78-17.16c-0.44-3.95-3.86-11.41-9.98-16.37
						c-0.18-1.84-1.76-16.01,1.75-14.62c2.96,1.17,6.16,3.92,8.47,6.73c4.72,5.74,8.7,16.55,8.67,24.61
						C197.11,132.24,194.58,138.08,182.88,151.41z"/>
					<path class="st40" d="M182.88,151.41c-1.09-1.54-2.2-4.03-2.44-6.14c3.6-6.23,8.18-13.52,7.78-17.16
						c1.33,6.65-4.35,15.17-2.91,20.48C184.54,149.5,183.74,150.43,182.88,151.41z"/>
				</g>
			</g>
		</g>
	</g>
</g>
</svg>
